<svg xmlns="http://www.w3.org/2000/svg" width="1200" height="381" viewBox="0 0 1200 381">
<rect x="0" y="0" width="100%" height="100%" fill="#fbfbfd" />
<text x="16" y="22" font-size="14" font-family="ui-monospace, SFMono-Regular, Menlo, Consolas, monospace" fill="#111827" fill-opacity="0.9">sparse  end  iter=10168  n=20</text>
<g id="leaders"><line x1="345.93" y1="300.28" x2="335.79" y2="300.07" stroke="#6b7280" stroke-opacity="0.35" stroke-width="1" /><line x1="481.86" y1="296.71" x2="566.73" y2="296.71" stroke="#6b7280" stroke-opacity="0.35" stroke-width="1" /><line x1="617.63" y1="298.54" x2="512.21" y2="298.53" stroke="#6b7280" stroke-opacity="0.35" stroke-width="1" /><line x1="750.75" y1="295.79" x2="703.05" y2="295.79" stroke="#6b7280" stroke-opacity="0.35" stroke-width="1" /><line x1="345.14" y1="243.51" x2="270.79" y2="243.51" stroke="#6b7280" stroke-opacity="0.35" stroke-width="1" /><line x1="479.50" y1="245.64" x2="514.06" y2="245.64" stroke="#6b7280" stroke-opacity="0.35" stroke-width="1" /><line x1="615.82" y1="241.64" x2="574.12" y2="241.64" stroke="#6b7280" stroke-opacity="0.35" stroke-width="1" /><line x1="752.51" y1="243.44" x2="734.95" y2="243.45" stroke="#6b7280" stroke-opacity="0.35" stroke-width="1" /><line x1="346.12" y1="189.76" x2="271.38" y2="189.76" stroke="#6b7280" stroke-opacity="0.35" stroke-width="1" /><line x1="483.14" y1="189.29" x2="480.62" y2="189.28" stroke="#6b7280" stroke-opacity="0.35" stroke-width="1" /><line x1="619.21" y1="192.57" x2="578.03" y2="192.57" stroke="#6b7280" stroke-opacity="0.35" stroke-width="1" /><line x1="749.71" y1="191.02" x2="728.00" y2="191.02" stroke="#6b7280" stroke-opacity="0.35" stroke-width="1" /><line x1="348.90" y1="138.26" x2="316.60" y2="138.26" stroke="#6b7280" stroke-opacity="0.35" stroke-width="1" /><line x1="483.62" y1="137.52" x2="473.04" y2="137.52" stroke="#6b7280" stroke-opacity="0.35" stroke-width="1" /><line x1="618.53" y1="134.40" x2="614.44" y2="134.40" stroke="#6b7280" stroke-opacity="0.35" stroke-width="1" /><line x1="751.84" y1="135.31" x2="1013.21" y2="135.31" stroke="#6b7280" stroke-opacity="0.35" stroke-width="1" /><line x1="348.36" y1="85.20" x2="82.75" y2="85.21" stroke="#6b7280" stroke-opacity="0.35" stroke-width="1" /><line x1="484.69" y1="80.93" x2="547.48" y2="80.93" stroke="#6b7280" stroke-opacity="0.35" stroke-width="1" /><line x1="618.72" y1="84.94" x2="615.61" y2="84.94" stroke="#6b7280" stroke-opacity="0.35" stroke-width="1" /><line x1="751.61" y1="82.45" x2="910.33" y2="82.45" stroke="#6b7280" stroke-opacity="0.35" stroke-width="1" /></g>
<g id="rects"><rect x="326.89" y="290.77" width="17.79" height="18.60" fill="#1e90ff" fill-opacity="0.07" stroke="#0b3d91" stroke-opacity="0.35" stroke-width="1" /><rect x="557.83" y="287.42" width="17.79" height="18.60" fill="#1e90ff" fill-opacity="0.07" stroke="#0b3d91" stroke-opacity="0.35" stroke-width="1" /><rect x="503.31" y="289.24" width="17.79" height="18.60" fill="#1e90ff" fill-opacity="0.07" stroke="#0b3d91" stroke-opacity="0.35" stroke-width="1" /><rect x="694.16" y="286.49" width="17.79" height="18.60" fill="#1e90ff" fill-opacity="0.07" stroke="#0b3d91" stroke-opacity="0.35" stroke-width="1" /><rect x="259.68" y="234.21" width="22.23" height="18.60" fill="#1e90ff" fill-opacity="0.07" stroke="#0b3d91" stroke-opacity="0.35" stroke-width="1" /><rect x="502.94" y="236.34" width="22.23" height="18.60" fill="#1e90ff" fill-opacity="0.07" stroke="#0b3d91" stroke-opacity="0.35" stroke-width="1" /><rect x="563.00" y="232.34" width="22.23" height="18.60" fill="#1e90ff" fill-opacity="0.07" stroke="#0b3d91" stroke-opacity="0.35" stroke-width="1" /><rect x="723.83" y="234.15" width="22.23" height="18.60" fill="#1e90ff" fill-opacity="0.07" stroke="#0b3d91" stroke-opacity="0.35" stroke-width="1" /><rect x="260.26" y="180.46" width="22.23" height="18.60" fill="#1e90ff" fill-opacity="0.07" stroke="#0b3d91" stroke-opacity="0.35" stroke-width="1" /><rect x="469.51" y="179.99" width="22.23" height="18.60" fill="#1e90ff" fill-opacity="0.07" stroke="#0b3d91" stroke-opacity="0.35" stroke-width="1" /><rect x="566.91" y="183.27" width="22.23" height="18.60" fill="#1e90ff" fill-opacity="0.07" stroke="#0b3d91" stroke-opacity="0.35" stroke-width="1" /><rect x="716.88" y="181.72" width="22.23" height="18.60" fill="#1e90ff" fill-opacity="0.07" stroke="#0b3d91" stroke-opacity="0.35" stroke-width="1" /><rect x="305.49" y="128.96" width="22.23" height="18.60" fill="#1e90ff" fill-opacity="0.07" stroke="#0b3d91" stroke-opacity="0.35" stroke-width="1" /><rect x="461.93" y="128.22" width="22.23" height="18.60" fill="#1e90ff" fill-opacity="0.07" stroke="#0b3d91" stroke-opacity="0.35" stroke-width="1" /><rect x="603.33" y="125.10" width="22.23" height="18.60" fill="#1e90ff" fill-opacity="0.07" stroke="#0b3d91" stroke-opacity="0.35" stroke-width="1" /><rect x="1002.09" y="126.01" width="22.23" height="18.60" fill="#1e90ff" fill-opacity="0.07" stroke="#0b3d91" stroke-opacity="0.35" stroke-width="1" /><rect x="71.63" y="75.91" width="22.23" height="18.60" fill="#1e90ff" fill-opacity="0.07" stroke="#0b3d91" stroke-opacity="0.35" stroke-width="1" /><rect x="536.36" y="71.63" width="22.23" height="18.60" fill="#1e90ff" fill-opacity="0.07" stroke="#0b3d91" stroke-opacity="0.35" stroke-width="1" /><rect x="604.50" y="75.64" width="22.23" height="18.60" fill="#1e90ff" fill-opacity="0.07" stroke="#0b3d91" stroke-opacity="0.35" stroke-width="1" /><rect x="899.22" y="73.15" width="22.23" height="18.60" fill="#1e90ff" fill-opacity="0.07" stroke="#0b3d91" stroke-opacity="0.35" stroke-width="1" /></g>
<g id="anchors"><circle cx="345.93" cy="300.28" r="2.0" fill="#111827" fill-opacity="0.85" /><circle cx="481.86" cy="296.71" r="2.0" fill="#111827" fill-opacity="0.85" /><circle cx="617.63" cy="298.54" r="2.0" fill="#111827" fill-opacity="0.85" /><circle cx="750.75" cy="295.79" r="2.0" fill="#111827" fill-opacity="0.85" /><circle cx="345.14" cy="243.51" r="2.0" fill="#111827" fill-opacity="0.85" /><circle cx="479.50" cy="245.64" r="2.0" fill="#111827" fill-opacity="0.85" /><circle cx="615.82" cy="241.64" r="2.0" fill="#111827" fill-opacity="0.85" /><circle cx="752.51" cy="243.44" r="2.0" fill="#111827" fill-opacity="0.85" /><circle cx="346.12" cy="189.76" r="2.0" fill="#111827" fill-opacity="0.85" /><circle cx="483.14" cy="189.29" r="2.0" fill="#111827" fill-opacity="0.85" /><circle cx="619.21" cy="192.57" r="2.0" fill="#111827" fill-opacity="0.85" /><circle cx="749.71" cy="191.02" r="2.0" fill="#111827" fill-opacity="0.85" /><circle cx="348.90" cy="138.26" r="2.0" fill="#111827" fill-opacity="0.85" /><circle cx="483.62" cy="137.52" r="2.0" fill="#111827" fill-opacity="0.85" /><circle cx="618.53" cy="134.40" r="2.0" fill="#111827" fill-opacity="0.85" /><circle cx="751.84" cy="135.31" r="2.0" fill="#111827" fill-opacity="0.85" /><circle cx="348.36" cy="85.20" r="2.0" fill="#111827" fill-opacity="0.85" /><circle cx="484.69" cy="80.93" r="2.0" fill="#111827" fill-opacity="0.85" /><circle cx="618.72" cy="84.94" r="2.0" fill="#111827" fill-opacity="0.85" /><circle cx="751.61" cy="82.45" r="2.0" fill="#111827" fill-opacity="0.85" /></g>
<g id="labels"><text x="337.79" y="298.07" font-size="10" font-family="ui-monospace, SFMono-Regular, Menlo, Consolas, monospace" fill="#111827" fill-opacity="0.75">0</text><text x="568.73" y="294.71" font-size="10" font-family="ui-monospace, SFMono-Regular, Menlo, Consolas, monospace" fill="#111827" fill-opacity="0.75">1</text><text x="514.21" y="296.53" font-size="10" font-family="ui-monospace, SFMono-Regular, Menlo, Consolas, monospace" fill="#111827" fill-opacity="0.75">2</text><text x="705.05" y="293.79" font-size="10" font-family="ui-monospace, SFMono-Regular, Menlo, Consolas, monospace" fill="#111827" fill-opacity="0.75">3</text><text x="272.79" y="241.51" font-size="10" font-family="ui-monospace, SFMono-Regular, Menlo, Consolas, monospace" fill="#111827" fill-opacity="0.75">4</text><text x="516.06" y="243.64" font-size="10" font-family="ui-monospace, SFMono-Regular, Menlo, Consolas, monospace" fill="#111827" fill-opacity="0.75">5</text><text x="576.12" y="239.64" font-size="10" font-family="ui-monospace, SFMono-Regular, Menlo, Consolas, monospace" fill="#111827" fill-opacity="0.75">6</text><text x="736.95" y="241.45" font-size="10" font-family="ui-monospace, SFMono-Regular, Menlo, Consolas, monospace" fill="#111827" fill-opacity="0.75">7</text><text x="273.38" y="187.76" font-size="10" font-family="ui-monospace, SFMono-Regular, Menlo, Consolas, monospace" fill="#111827" fill-opacity="0.75">8</text><text x="482.62" y="187.28" font-size="10" font-family="ui-monospace, SFMono-Regular, Menlo, Consolas, monospace" fill="#111827" fill-opacity="0.75">9</text><text x="580.03" y="190.57" font-size="10" font-family="ui-monospace, SFMono-Regular, Menlo, Consolas, monospace" fill="#111827" fill-opacity="0.75">10</text><text x="730.00" y="189.02" font-size="10" font-family="ui-monospace, SFMono-Regular, Menlo, Consolas, monospace" fill="#111827" fill-opacity="0.75">11</text><text x="318.60" y="136.26" font-size="10" font-family="ui-monospace, SFMono-Regular, Menlo, Consolas, monospace" fill="#111827" fill-opacity="0.75">12</text><text x="475.04" y="135.52" font-size="10" font-family="ui-monospace, SFMono-Regular, Menlo, Consolas, monospace" fill="#111827" fill-opacity="0.75">13</text><text x="616.44" y="132.40" font-size="10" font-family="ui-monospace, SFMono-Regular, Menlo, Consolas, monospace" fill="#111827" fill-opacity="0.75">14</text><text x="1015.21" y="133.31" font-size="10" font-family="ui-monospace, SFMono-Regular, Menlo, Consolas, monospace" fill="#111827" fill-opacity="0.75">15</text><text x="84.75" y="83.21" font-size="10" font-family="ui-monospace, SFMono-Regular, Menlo, Consolas, monospace" fill="#111827" fill-opacity="0.75">16</text><text x="549.48" y="78.93" font-size="10" font-family="ui-monospace, SFMono-Regular, Menlo, Consolas, monospace" fill="#111827" fill-opacity="0.75">17</text><text x="617.61" y="82.94" font-size="10" font-family="ui-monospace, SFMono-Regular, Menlo, Consolas, monospace" fill="#111827" fill-opacity="0.75">18</text><text x="912.33" y="80.45" font-size="10" font-family="ui-monospace, SFMono-Regular, Menlo, Consolas, monospace" fill="#111827" fill-opacity="0.75">19</text></g>
</svg>