<svg xmlns="http://www.w3.org/2000/svg" width="1200" height="713" viewBox="0 0 1200 713">
<rect x="0" y="0" width="100%" height="100%" fill="#fbfbfd" />
<text x="16" y="22" font-size="14" font-family="ui-monospace, SFMono-Regular, Menlo, Consolas, monospace" fill="#111827" fill-opacity="0.9">sparse  start  iter=0  n=20</text>
<g id="leaders"><line x1="103.05" y1="616.14" x2="103.05" y2="616.14" stroke="#6b7280" stroke-opacity="0.35" stroke-width="1" /><line x1="424.84" y1="607.70" x2="424.84" y2="607.70" stroke="#6b7280" stroke-opacity="0.35" stroke-width="1" /><line x1="746.27" y1="612.03" x2="746.27" y2="612.03" stroke="#6b7280" stroke-opacity="0.35" stroke-width="1" /><line x1="1061.39" y1="605.51" x2="1061.39" y2="605.51" stroke="#6b7280" stroke-opacity="0.35" stroke-width="1" /><line x1="101.17" y1="481.75" x2="101.17" y2="481.75" stroke="#6b7280" stroke-opacity="0.35" stroke-width="1" /><line x1="419.24" y1="486.79" x2="419.24" y2="486.79" stroke="#6b7280" stroke-opacity="0.35" stroke-width="1" /><line x1="741.96" y1="477.32" x2="741.96" y2="477.32" stroke="#6b7280" stroke-opacity="0.35" stroke-width="1" /><line x1="1065.58" y1="481.59" x2="1065.58" y2="481.59" stroke="#6b7280" stroke-opacity="0.35" stroke-width="1" /><line x1="103.49" y1="354.50" x2="103.49" y2="354.50" stroke="#6b7280" stroke-opacity="0.35" stroke-width="1" /><line x1="427.86" y1="353.40" x2="427.86" y2="353.40" stroke="#6b7280" stroke-opacity="0.35" stroke-width="1" /><line x1="749.99" y1="361.16" x2="749.99" y2="361.16" stroke="#6b7280" stroke-opacity="0.35" stroke-width="1" /><line x1="1058.93" y1="357.48" x2="1058.93" y2="357.48" stroke="#6b7280" stroke-opacity="0.35" stroke-width="1" /><line x1="110.06" y1="232.59" x2="110.06" y2="232.59" stroke="#6b7280" stroke-opacity="0.35" stroke-width="1" /><line x1="429.01" y1="230.83" x2="429.01" y2="230.83" stroke="#6b7280" stroke-opacity="0.35" stroke-width="1" /><line x1="748.38" y1="223.44" x2="748.38" y2="223.44" stroke="#6b7280" stroke-opacity="0.35" stroke-width="1" /><line x1="1063.97" y1="225.61" x2="1063.97" y2="225.61" stroke="#6b7280" stroke-opacity="0.35" stroke-width="1" /><line x1="108.80" y1="106.98" x2="108.80" y2="106.98" stroke="#6b7280" stroke-opacity="0.35" stroke-width="1" /><line x1="431.53" y1="96.86" x2="431.53" y2="96.86" stroke="#6b7280" stroke-opacity="0.35" stroke-width="1" /><line x1="748.83" y1="106.35" x2="748.83" y2="106.35" stroke="#6b7280" stroke-opacity="0.35" stroke-width="1" /><line x1="1063.44" y1="100.45" x2="1063.44" y2="100.45" stroke="#6b7280" stroke-opacity="0.35" stroke-width="1" /></g>
<g id="rects"><rect x="82.00" y="594.13" width="42.11" height="44.02" fill="#1e90ff" fill-opacity="0.07" stroke="#0b3d91" stroke-opacity="0.35" stroke-width="1" /><rect x="403.78" y="585.69" width="42.11" height="44.02" fill="#1e90ff" fill-opacity="0.07" stroke="#0b3d91" stroke-opacity="0.35" stroke-width="1" /><rect x="725.21" y="590.02" width="42.11" height="44.02" fill="#1e90ff" fill-opacity="0.07" stroke="#0b3d91" stroke-opacity="0.35" stroke-width="1" /><rect x="1040.34" y="583.50" width="42.11" height="44.02" fill="#1e90ff" fill-opacity="0.07" stroke="#0b3d91" stroke-opacity="0.35" stroke-width="1" /><rect x="74.85" y="459.74" width="52.63" height="44.02" fill="#1e90ff" fill-opacity="0.07" stroke="#0b3d91" stroke-opacity="0.35" stroke-width="1" /><rect x="392.92" y="464.77" width="52.63" height="44.02" fill="#1e90ff" fill-opacity="0.07" stroke="#0b3d91" stroke-opacity="0.35" stroke-width="1" /><rect x="715.64" y="455.31" width="52.63" height="44.02" fill="#1e90ff" fill-opacity="0.07" stroke="#0b3d91" stroke-opacity="0.35" stroke-width="1" /><rect x="1039.26" y="459.58" width="52.63" height="44.02" fill="#1e90ff" fill-opacity="0.07" stroke="#0b3d91" stroke-opacity="0.35" stroke-width="1" /><rect x="77.17" y="332.49" width="52.63" height="44.02" fill="#1e90ff" fill-opacity="0.07" stroke="#0b3d91" stroke-opacity="0.35" stroke-width="1" /><rect x="401.55" y="331.38" width="52.63" height="44.02" fill="#1e90ff" fill-opacity="0.07" stroke="#0b3d91" stroke-opacity="0.35" stroke-width="1" /><rect x="723.68" y="339.15" width="52.63" height="44.02" fill="#1e90ff" fill-opacity="0.07" stroke="#0b3d91" stroke-opacity="0.35" stroke-width="1" /><rect x="1032.61" y="335.47" width="52.63" height="44.02" fill="#1e90ff" fill-opacity="0.07" stroke="#0b3d91" stroke-opacity="0.35" stroke-width="1" /><rect x="83.74" y="210.58" width="52.63" height="44.02" fill="#1e90ff" fill-opacity="0.07" stroke="#0b3d91" stroke-opacity="0.35" stroke-width="1" /><rect x="402.69" y="208.82" width="52.63" height="44.02" fill="#1e90ff" fill-opacity="0.07" stroke="#0b3d91" stroke-opacity="0.35" stroke-width="1" /><rect x="722.06" y="201.43" width="52.63" height="44.02" fill="#1e90ff" fill-opacity="0.07" stroke="#0b3d91" stroke-opacity="0.35" stroke-width="1" /><rect x="1037.66" y="203.59" width="52.63" height="44.02" fill="#1e90ff" fill-opacity="0.07" stroke="#0b3d91" stroke-opacity="0.35" stroke-width="1" /><rect x="82.48" y="84.97" width="52.63" height="44.02" fill="#1e90ff" fill-opacity="0.07" stroke="#0b3d91" stroke-opacity="0.35" stroke-width="1" /><rect x="405.22" y="74.85" width="52.63" height="44.02" fill="#1e90ff" fill-opacity="0.07" stroke="#0b3d91" stroke-opacity="0.35" stroke-width="1" /><rect x="722.52" y="84.34" width="52.63" height="44.02" fill="#1e90ff" fill-opacity="0.07" stroke="#0b3d91" stroke-opacity="0.35" stroke-width="1" /><rect x="1037.12" y="78.44" width="52.63" height="44.02" fill="#1e90ff" fill-opacity="0.07" stroke="#0b3d91" stroke-opacity="0.35" stroke-width="1" /></g>
<g id="anchors"><circle cx="103.05" cy="616.14" r="2.0" fill="#111827" fill-opacity="0.85" /><circle cx="424.84" cy="607.70" r="2.0" fill="#111827" fill-opacity="0.85" /><circle cx="746.27" cy="612.03" r="2.0" fill="#111827" fill-opacity="0.85" /><circle cx="1061.39" cy="605.51" r="2.0" fill="#111827" fill-opacity="0.85" /><circle cx="101.17" cy="481.75" r="2.0" fill="#111827" fill-opacity="0.85" /><circle cx="419.24" cy="486.79" r="2.0" fill="#111827" fill-opacity="0.85" /><circle cx="741.96" cy="477.32" r="2.0" fill="#111827" fill-opacity="0.85" /><circle cx="1065.58" cy="481.59" r="2.0" fill="#111827" fill-opacity="0.85" /><circle cx="103.49" cy="354.50" r="2.0" fill="#111827" fill-opacity="0.85" /><circle cx="427.86" cy="353.40" r="2.0" fill="#111827" fill-opacity="0.85" /><circle cx="749.99" cy="361.16" r="2.0" fill="#111827" fill-opacity="0.85" /><circle cx="1058.93" cy="357.48" r="2.0" fill="#111827" fill-opacity="0.85" /><circle cx="110.06" cy="232.59" r="2.0" fill="#111827" fill-opacity="0.85" /><circle cx="429.01" cy="230.83" r="2.0" fill="#111827" fill-opacity="0.85" /><circle cx="748.38" cy="223.44" r="2.0" fill="#111827" fill-opacity="0.85" /><circle cx="1063.97" cy="225.61" r="2.0" fill="#111827" fill-opacity="0.85" /><circle cx="108.80" cy="106.98" r="2.0" fill="#111827" fill-opacity="0.85" /><circle cx="431.53" cy="96.86" r="2.0" fill="#111827" fill-opacity="0.85" /><circle cx="748.83" cy="106.35" r="2.0" fill="#111827" fill-opacity="0.85" /><circle cx="1063.44" cy="100.45" r="2.0" fill="#111827" fill-opacity="0.85" /></g>
<g id="labels"><text x="105.05" y="614.14" font-size="10" font-family="ui-monospace, SFMono-Regular, Menlo, Consolas, monospace" fill="#111827" fill-opacity="0.75">0</text><text x="426.84" y="605.70" font-size="10" font-family="ui-monospace, SFMono-Regular, Menlo, Consolas, monospace" fill="#111827" fill-opacity="0.75">1</text><text x="748.27" y="610.03" font-size="10" font-family="ui-monospace, SFMono-Regular, Menlo, Consolas, monospace" fill="#111827" fill-opacity="0.75">2</text><text x="1063.39" y="603.51" font-size="10" font-family="ui-monospace, SFMono-Regular, Menlo, Consolas, monospace" fill="#111827" fill-opacity="0.75">3</text><text x="103.17" y="479.75" font-size="10" font-family="ui-monospace, SFMono-Regular, Menlo, Consolas, monospace" fill="#111827" fill-opacity="0.75">4</text><text x="421.24" y="484.79" font-size="10" font-family="ui-monospace, SFMono-Regular, Menlo, Consolas, monospace" fill="#111827" fill-opacity="0.75">5</text><text x="743.96" y="475.32" font-size="10" font-family="ui-monospace, SFMono-Regular, Menlo, Consolas, monospace" fill="#111827" fill-opacity="0.75">6</text><text x="1067.58" y="479.59" font-size="10" font-family="ui-monospace, SFMono-Regular, Menlo, Consolas, monospace" fill="#111827" fill-opacity="0.75">7</text><text x="105.49" y="352.50" font-size="10" font-family="ui-monospace, SFMono-Regular, Menlo, Consolas, monospace" fill="#111827" fill-opacity="0.75">8</text><text x="429.86" y="351.40" font-size="10" font-family="ui-monospace, SFMono-Regular, Menlo, Consolas, monospace" fill="#111827" fill-opacity="0.75">9</text><text x="751.99" y="359.16" font-size="10" font-family="ui-monospace, SFMono-Regular, Menlo, Consolas, monospace" fill="#111827" fill-opacity="0.75">10</text><text x="1060.93" y="355.48" font-size="10" font-family="ui-monospace, SFMono-Regular, Menlo, Consolas, monospace" fill="#111827" fill-opacity="0.75">11</text><text x="112.06" y="230.59" font-size="10" font-family="ui-monospace, SFMono-Regular, Menlo, Consolas, monospace" fill="#111827" fill-opacity="0.75">12</text><text x="431.01" y="228.83" font-size="10" font-family="ui-monospace, SFMono-Regular, Menlo, Consolas, monospace" fill="#111827" fill-opacity="0.75">13</text><text x="750.38" y="221.44" font-size="10" font-family="ui-monospace, SFMono-Regular, Menlo, Consolas, monospace" fill="#111827" fill-opacity="0.75">14</text><text x="1065.97" y="223.61" font-size="10" font-family="ui-monospace, SFMono-Regular, Menlo, Consolas, monospace" fill="#111827" fill-opacity="0.75">15</text><text x="110.80" y="104.98" font-size="10" font-family="ui-monospace, SFMono-Regular, Menlo, Consolas, monospace" fill="#111827" fill-opacity="0.75">16</text><text x="433.53" y="94.86" font-size="10" font-family="ui-monospace, SFMono-Regular, Menlo, Consolas, monospace" fill="#111827" fill-opacity="0.75">17</text><text x="750.83" y="104.35" font-size="10" font-family="ui-monospace, SFMono-Regular, Menlo, Consolas, monospace" fill="#111827" fill-opacity="0.75">18</text><text x="1065.44" y="98.45" font-size="10" font-family="ui-monospace, SFMono-Regular, Menlo, Consolas, monospace" fill="#111827" fill-opacity="0.75">19</text></g>
</svg>