<svg xmlns="http://www.w3.org/2000/svg" width="1200" height="218" viewBox="0 0 1200 218">
<rect x="0" y="0" width="100%" height="100%" fill="#fbfbfd" />
<text x="16" y="22" font-size="14" font-family="ui-monospace, SFMono-Regular, Menlo, Consolas, monospace" fill="#111827" fill-opacity="0.9">cluster  iter  iter=8000  n=10</text>
<g id="leaders"><line x1="496.00" y1="114.29" x2="139.61" y2="141.47" stroke="#6b7280" stroke-opacity="0.35" stroke-width="1" /><line x1="496.00" y1="114.29" x2="234.81" y2="129.57" stroke="#6b7280" stroke-opacity="0.35" stroke-width="1" /><line x1="496.00" y1="114.29" x2="901.79" y2="76.53" stroke="#6b7280" stroke-opacity="0.35" stroke-width="1" /><line x1="496.00" y1="114.29" x2="809.47" y2="140.33" stroke="#6b7280" stroke-opacity="0.35" stroke-width="1" /><line x1="496.00" y1="114.29" x2="169.33" y2="123.25" stroke="#6b7280" stroke-opacity="0.35" stroke-width="1" /><line x1="496.00" y1="114.29" x2="80.90" y2="127.21" stroke="#6b7280" stroke-opacity="0.35" stroke-width="1" /><line x1="496.00" y1="114.29" x2="534.77" y2="98.61" stroke="#6b7280" stroke-opacity="0.35" stroke-width="1" /><line x1="496.00" y1="114.29" x2="680.59" y2="80.25" stroke="#6b7280" stroke-opacity="0.35" stroke-width="1" /><line x1="496.00" y1="114.29" x2="338.99" y2="80.11" stroke="#6b7280" stroke-opacity="0.35" stroke-width="1" /><line x1="496.00" y1="114.29" x2="306.91" y2="102.75" stroke="#6b7280" stroke-opacity="0.35" stroke-width="1" /></g>
<g id="rects"><rect x="125.20" y="131.42" width="28.83" height="20.10" fill="#1e90ff" fill-opacity="0.07" stroke="#0b3d91" stroke-opacity="0.35" stroke-width="1" /><rect x="220.40" y="119.52" width="28.83" height="20.10" fill="#1e90ff" fill-opacity="0.07" stroke="#0b3d91" stroke-opacity="0.35" stroke-width="1" /><rect x="887.37" y="66.49" width="28.83" height="20.10" fill="#1e90ff" fill-opacity="0.07" stroke="#0b3d91" stroke-opacity="0.35" stroke-width="1" /><rect x="795.05" y="130.28" width="28.83" height="20.10" fill="#1e90ff" fill-opacity="0.07" stroke="#0b3d91" stroke-opacity="0.35" stroke-width="1" /><rect x="154.91" y="113.21" width="28.83" height="20.10" fill="#1e90ff" fill-opacity="0.07" stroke="#0b3d91" stroke-opacity="0.35" stroke-width="1" /><rect x="66.49" y="117.16" width="28.83" height="20.10" fill="#1e90ff" fill-opacity="0.07" stroke="#0b3d91" stroke-opacity="0.35" stroke-width="1" /><rect x="520.35" y="88.56" width="28.83" height="20.10" fill="#1e90ff" fill-opacity="0.07" stroke="#0b3d91" stroke-opacity="0.35" stroke-width="1" /><rect x="666.17" y="70.20" width="28.83" height="20.10" fill="#1e90ff" fill-opacity="0.07" stroke="#0b3d91" stroke-opacity="0.35" stroke-width="1" /><rect x="324.57" y="70.06" width="28.83" height="20.10" fill="#1e90ff" fill-opacity="0.07" stroke="#0b3d91" stroke-opacity="0.35" stroke-width="1" /><rect x="292.50" y="92.70" width="28.83" height="20.10" fill="#1e90ff" fill-opacity="0.07" stroke="#0b3d91" stroke-opacity="0.35" stroke-width="1" /></g>
<g id="anchors"><circle cx="496.00" cy="114.29" r="2.0" fill="#111827" fill-opacity="0.85" /><circle cx="496.00" cy="114.29" r="2.0" fill="#111827" fill-opacity="0.85" /><circle cx="496.00" cy="114.29" r="2.0" fill="#111827" fill-opacity="0.85" /><circle cx="496.00" cy="114.29" r="2.0" fill="#111827" fill-opacity="0.85" /><circle cx="496.00" cy="114.29" r="2.0" fill="#111827" fill-opacity="0.85" /><circle cx="496.00" cy="114.29" r="2.0" fill="#111827" fill-opacity="0.85" /><circle cx="496.00" cy="114.29" r="2.0" fill="#111827" fill-opacity="0.85" /><circle cx="496.00" cy="114.29" r="2.0" fill="#111827" fill-opacity="0.85" /><circle cx="496.00" cy="114.29" r="2.0" fill="#111827" fill-opacity="0.85" /><circle cx="496.00" cy="114.29" r="2.0" fill="#111827" fill-opacity="0.85" /></g>
<g id="labels"><text x="141.61" y="139.47" font-size="10" font-family="ui-monospace, SFMono-Regular, Menlo, Consolas, monospace" fill="#111827" fill-opacity="0.75">0</text><text x="236.81" y="127.57" font-size="10" font-family="ui-monospace, SFMono-Regular, Menlo, Consolas, monospace" fill="#111827" fill-opacity="0.75">1</text><text x="903.79" y="74.53" font-size="10" font-family="ui-monospace, SFMono-Regular, Menlo, Consolas, monospace" fill="#111827" fill-opacity="0.75">2</text><text x="811.47" y="138.33" font-size="10" font-family="ui-monospace, SFMono-Regular, Menlo, Consolas, monospace" fill="#111827" fill-opacity="0.75">3</text><text x="171.33" y="121.25" font-size="10" font-family="ui-monospace, SFMono-Regular, Menlo, Consolas, monospace" fill="#111827" fill-opacity="0.75">4</text><text x="82.90" y="125.21" font-size="10" font-family="ui-monospace, SFMono-Regular, Menlo, Consolas, monospace" fill="#111827" fill-opacity="0.75">5</text><text x="536.77" y="96.61" font-size="10" font-family="ui-monospace, SFMono-Regular, Menlo, Consolas, monospace" fill="#111827" fill-opacity="0.75">6</text><text x="682.59" y="78.25" font-size="10" font-family="ui-monospace, SFMono-Regular, Menlo, Consolas, monospace" fill="#111827" fill-opacity="0.75">7</text><text x="340.99" y="78.11" font-size="10" font-family="ui-monospace, SFMono-Regular, Menlo, Consolas, monospace" fill="#111827" fill-opacity="0.75">8</text><text x="308.91" y="100.75" font-size="10" font-family="ui-monospace, SFMono-Regular, Menlo, Consolas, monospace" fill="#111827" fill-opacity="0.75">9</text></g>
</svg>