<svg xmlns="http://www.w3.org/2000/svg" width="1200" height="222" viewBox="0 0 1200 222">
<rect x="0" y="0" width="100%" height="100%" fill="#fbfbfd" />
<text x="16" y="22" font-size="14" font-family="ui-monospace, SFMono-Regular, Menlo, Consolas, monospace" fill="#111827" fill-opacity="0.9">cluster  iter  iter=20000  n=10</text>
<g id="leaders"><line x1="494.81" y1="111.95" x2="789.92" y2="145.39" stroke="#6b7280" stroke-opacity="0.35" stroke-width="1" /><line x1="494.81" y1="111.95" x2="142.57" y2="136.10" stroke="#6b7280" stroke-opacity="0.35" stroke-width="1" /><line x1="494.81" y1="111.95" x2="175.63" y2="108.02" stroke="#6b7280" stroke-opacity="0.35" stroke-width="1" /><line x1="494.81" y1="111.95" x2="337.74" y2="76.61" stroke="#6b7280" stroke-opacity="0.35" stroke-width="1" /><line x1="494.81" y1="111.95" x2="230.14" y2="129.46" stroke="#6b7280" stroke-opacity="0.35" stroke-width="1" /><line x1="494.81" y1="111.95" x2="542.06" y2="94.49" stroke="#6b7280" stroke-opacity="0.35" stroke-width="1" /><line x1="494.81" y1="111.95" x2="668.52" y2="80.65" stroke="#6b7280" stroke-opacity="0.35" stroke-width="1" /><line x1="494.81" y1="111.95" x2="306.91" y2="90.03" stroke="#6b7280" stroke-opacity="0.35" stroke-width="1" /><line x1="494.81" y1="111.95" x2="80.94" y2="126.28" stroke="#6b7280" stroke-opacity="0.35" stroke-width="1" /><line x1="494.81" y1="111.95" x2="905.62" y2="77.11" stroke="#6b7280" stroke-opacity="0.35" stroke-width="1" /></g>
<g id="rects"><rect x="775.65" y="135.44" width="28.55" height="19.90" fill="#1e90ff" fill-opacity="0.07" stroke="#0b3d91" stroke-opacity="0.35" stroke-width="1" /><rect x="128.30" y="126.15" width="28.55" height="19.90" fill="#1e90ff" fill-opacity="0.07" stroke="#0b3d91" stroke-opacity="0.35" stroke-width="1" /><rect x="161.35" y="98.07" width="28.55" height="19.90" fill="#1e90ff" fill-opacity="0.07" stroke="#0b3d91" stroke-opacity="0.35" stroke-width="1" /><rect x="323.46" y="66.66" width="28.55" height="19.90" fill="#1e90ff" fill-opacity="0.07" stroke="#0b3d91" stroke-opacity="0.35" stroke-width="1" /><rect x="215.87" y="119.51" width="28.55" height="19.90" fill="#1e90ff" fill-opacity="0.07" stroke="#0b3d91" stroke-opacity="0.35" stroke-width="1" /><rect x="527.79" y="84.54" width="28.55" height="19.90" fill="#1e90ff" fill-opacity="0.07" stroke="#0b3d91" stroke-opacity="0.35" stroke-width="1" /><rect x="654.24" y="70.70" width="28.55" height="19.90" fill="#1e90ff" fill-opacity="0.07" stroke="#0b3d91" stroke-opacity="0.35" stroke-width="1" /><rect x="292.63" y="80.08" width="28.55" height="19.90" fill="#1e90ff" fill-opacity="0.07" stroke="#0b3d91" stroke-opacity="0.35" stroke-width="1" /><rect x="66.66" y="116.33" width="28.55" height="19.90" fill="#1e90ff" fill-opacity="0.07" stroke="#0b3d91" stroke-opacity="0.35" stroke-width="1" /><rect x="891.34" y="67.16" width="28.55" height="19.90" fill="#1e90ff" fill-opacity="0.07" stroke="#0b3d91" stroke-opacity="0.35" stroke-width="1" /></g>
<g id="anchors"><circle cx="494.81" cy="111.95" r="2.0" fill="#111827" fill-opacity="0.85" /><circle cx="494.81" cy="111.95" r="2.0" fill="#111827" fill-opacity="0.85" /><circle cx="494.81" cy="111.95" r="2.0" fill="#111827" fill-opacity="0.85" /><circle cx="494.81" cy="111.95" r="2.0" fill="#111827" fill-opacity="0.85" /><circle cx="494.81" cy="111.95" r="2.0" fill="#111827" fill-opacity="0.85" /><circle cx="494.81" cy="111.95" r="2.0" fill="#111827" fill-opacity="0.85" /><circle cx="494.81" cy="111.95" r="2.0" fill="#111827" fill-opacity="0.85" /><circle cx="494.81" cy="111.95" r="2.0" fill="#111827" fill-opacity="0.85" /><circle cx="494.81" cy="111.95" r="2.0" fill="#111827" fill-opacity="0.85" /><circle cx="494.81" cy="111.95" r="2.0" fill="#111827" fill-opacity="0.85" /></g>
<g id="labels"><text x="791.92" y="143.39" font-size="10" font-family="ui-monospace, SFMono-Regular, Menlo, Consolas, monospace" fill="#111827" fill-opacity="0.75">0</text><text x="144.57" y="134.10" font-size="10" font-family="ui-monospace, SFMono-Regular, Menlo, Consolas, monospace" fill="#111827" fill-opacity="0.75">1</text><text x="177.63" y="106.02" font-size="10" font-family="ui-monospace, SFMono-Regular, Menlo, Consolas, monospace" fill="#111827" fill-opacity="0.75">2</text><text x="339.74" y="74.61" font-size="10" font-family="ui-monospace, SFMono-Regular, Menlo, Consolas, monospace" fill="#111827" fill-opacity="0.75">3</text><text x="232.14" y="127.46" font-size="10" font-family="ui-monospace, SFMono-Regular, Menlo, Consolas, monospace" fill="#111827" fill-opacity="0.75">4</text><text x="544.06" y="92.49" font-size="10" font-family="ui-monospace, SFMono-Regular, Menlo, Consolas, monospace" fill="#111827" fill-opacity="0.75">5</text><text x="670.52" y="78.65" font-size="10" font-family="ui-monospace, SFMono-Regular, Menlo, Consolas, monospace" fill="#111827" fill-opacity="0.75">6</text><text x="308.91" y="88.03" font-size="10" font-family="ui-monospace, SFMono-Regular, Menlo, Consolas, monospace" fill="#111827" fill-opacity="0.75">7</text><text x="82.94" y="124.28" font-size="10" font-family="ui-monospace, SFMono-Regular, Menlo, Consolas, monospace" fill="#111827" fill-opacity="0.75">8</text><text x="907.62" y="75.11" font-size="10" font-family="ui-monospace, SFMono-Regular, Menlo, Consolas, monospace" fill="#111827" fill-opacity="0.75">9</text></g>
</svg>