<svg xmlns="http://www.w3.org/2000/svg" width="1200" height="220" viewBox="0 0 1200 220">
<rect x="0" y="0" width="100%" height="100%" fill="#fbfbfd" />
<text x="16" y="22" font-size="14" font-family="ui-monospace, SFMono-Regular, Menlo, Consolas, monospace" fill="#111827" fill-opacity="0.9">cluster  iter  iter=9000  n=10</text>
<g id="leaders"><line x1="493.32" y1="114.58" x2="175.62" y2="109.34" stroke="#6b7280" stroke-opacity="0.35" stroke-width="1" /><line x1="493.32" y1="114.58" x2="228.65" y2="132.40" stroke="#6b7280" stroke-opacity="0.35" stroke-width="1" /><line x1="493.32" y1="114.58" x2="80.88" y2="127.15" stroke="#6b7280" stroke-opacity="0.35" stroke-width="1" /><line x1="493.32" y1="114.58" x2="673.44" y2="84.06" stroke="#6b7280" stroke-opacity="0.35" stroke-width="1" /><line x1="493.32" y1="114.58" x2="135.77" y2="136.84" stroke="#6b7280" stroke-opacity="0.35" stroke-width="1" /><line x1="493.32" y1="114.58" x2="904.16" y2="79.47" stroke="#6b7280" stroke-opacity="0.35" stroke-width="1" /><line x1="493.32" y1="114.58" x2="793.44" y2="143.45" stroke="#6b7280" stroke-opacity="0.35" stroke-width="1" /><line x1="493.32" y1="114.58" x2="309.04" y2="99.00" stroke="#6b7280" stroke-opacity="0.35" stroke-width="1" /><line x1="493.32" y1="114.58" x2="540.42" y2="98.06" stroke="#6b7280" stroke-opacity="0.35" stroke-width="1" /><line x1="493.32" y1="114.58" x2="339.38" y2="76.55" stroke="#6b7280" stroke-opacity="0.35" stroke-width="1" /></g>
<g id="rects"><rect x="161.34" y="99.38" width="28.57" height="19.91" fill="#1e90ff" fill-opacity="0.07" stroke="#0b3d91" stroke-opacity="0.35" stroke-width="1" /><rect x="214.37" y="122.45" width="28.57" height="19.91" fill="#1e90ff" fill-opacity="0.07" stroke="#0b3d91" stroke-opacity="0.35" stroke-width="1" /><rect x="66.59" y="117.20" width="28.57" height="19.91" fill="#1e90ff" fill-opacity="0.07" stroke="#0b3d91" stroke-opacity="0.35" stroke-width="1" /><rect x="659.15" y="74.10" width="28.57" height="19.91" fill="#1e90ff" fill-opacity="0.07" stroke="#0b3d91" stroke-opacity="0.35" stroke-width="1" /><rect x="121.49" y="126.89" width="28.57" height="19.91" fill="#1e90ff" fill-opacity="0.07" stroke="#0b3d91" stroke-opacity="0.35" stroke-width="1" /><rect x="889.88" y="69.52" width="28.57" height="19.91" fill="#1e90ff" fill-opacity="0.07" stroke="#0b3d91" stroke-opacity="0.35" stroke-width="1" /><rect x="779.15" y="133.49" width="28.57" height="19.91" fill="#1e90ff" fill-opacity="0.07" stroke="#0b3d91" stroke-opacity="0.35" stroke-width="1" /><rect x="294.75" y="89.04" width="28.57" height="19.91" fill="#1e90ff" fill-opacity="0.07" stroke="#0b3d91" stroke-opacity="0.35" stroke-width="1" /><rect x="526.13" y="88.11" width="28.57" height="19.91" fill="#1e90ff" fill-opacity="0.07" stroke="#0b3d91" stroke-opacity="0.35" stroke-width="1" /><rect x="325.09" y="66.59" width="28.57" height="19.91" fill="#1e90ff" fill-opacity="0.07" stroke="#0b3d91" stroke-opacity="0.35" stroke-width="1" /></g>
<g id="anchors"><circle cx="493.32" cy="114.58" r="2.0" fill="#111827" fill-opacity="0.85" /><circle cx="493.32" cy="114.58" r="2.0" fill="#111827" fill-opacity="0.85" /><circle cx="493.32" cy="114.58" r="2.0" fill="#111827" fill-opacity="0.85" /><circle cx="493.32" cy="114.58" r="2.0" fill="#111827" fill-opacity="0.85" /><circle cx="493.32" cy="114.58" r="2.0" fill="#111827" fill-opacity="0.85" /><circle cx="493.32" cy="114.58" r="2.0" fill="#111827" fill-opacity="0.85" /><circle cx="493.32" cy="114.58" r="2.0" fill="#111827" fill-opacity="0.85" /><circle cx="493.32" cy="114.58" r="2.0" fill="#111827" fill-opacity="0.85" /><circle cx="493.32" cy="114.58" r="2.0" fill="#111827" fill-opacity="0.85" /><circle cx="493.32" cy="114.58" r="2.0" fill="#111827" fill-opacity="0.85" /></g>
<g id="labels"><text x="177.62" y="107.34" font-size="10" font-family="ui-monospace, SFMono-Regular, Menlo, Consolas, monospace" fill="#111827" fill-opacity="0.75">0</text><text x="230.65" y="130.40" font-size="10" font-family="ui-monospace, SFMono-Regular, Menlo, Consolas, monospace" fill="#111827" fill-opacity="0.75">1</text><text x="82.88" y="125.15" font-size="10" font-family="ui-monospace, SFMono-Regular, Menlo, Consolas, monospace" fill="#111827" fill-opacity="0.75">2</text><text x="675.44" y="82.06" font-size="10" font-family="ui-monospace, SFMono-Regular, Menlo, Consolas, monospace" fill="#111827" fill-opacity="0.75">3</text><text x="137.77" y="134.84" font-size="10" font-family="ui-monospace, SFMono-Regular, Menlo, Consolas, monospace" fill="#111827" fill-opacity="0.75">4</text><text x="906.16" y="77.47" font-size="10" font-family="ui-monospace, SFMono-Regular, Menlo, Consolas, monospace" fill="#111827" fill-opacity="0.75">5</text><text x="795.44" y="141.45" font-size="10" font-family="ui-monospace, SFMono-Regular, Menlo, Consolas, monospace" fill="#111827" fill-opacity="0.75">6</text><text x="311.04" y="97.00" font-size="10" font-family="ui-monospace, SFMono-Regular, Menlo, Consolas, monospace" fill="#111827" fill-opacity="0.75">7</text><text x="542.42" y="96.06" font-size="10" font-family="ui-monospace, SFMono-Regular, Menlo, Consolas, monospace" fill="#111827" fill-opacity="0.75">8</text><text x="341.38" y="74.55" font-size="10" font-family="ui-monospace, SFMono-Regular, Menlo, Consolas, monospace" fill="#111827" fill-opacity="0.75">9</text></g>
</svg>