<svg xmlns="http://www.w3.org/2000/svg" width="1200" height="222" viewBox="0 0 1200 222">
<rect x="0" y="0" width="100%" height="100%" fill="#fbfbfd" />
<text x="16" y="22" font-size="14" font-family="ui-monospace, SFMono-Regular, Menlo, Consolas, monospace" fill="#111827" fill-opacity="0.9">cluster  iter  iter=5000  n=10</text>
<g id="leaders"><line x1="495.97" y1="104.93" x2="281.44" y2="97.80" stroke="#6b7280" stroke-opacity="0.35" stroke-width="1" /><line x1="495.97" y1="104.93" x2="908.11" y2="80.02" stroke="#6b7280" stroke-opacity="0.35" stroke-width="1" /><line x1="495.97" y1="104.93" x2="633.65" y2="145.16" stroke="#6b7280" stroke-opacity="0.35" stroke-width="1" /><line x1="495.97" y1="104.93" x2="203.89" y2="142.15" stroke="#6b7280" stroke-opacity="0.35" stroke-width="1" /><line x1="495.97" y1="104.93" x2="781.28" y2="94.89" stroke="#6b7280" stroke-opacity="0.35" stroke-width="1" /><line x1="495.97" y1="104.93" x2="578.15" y2="103.71" stroke="#6b7280" stroke-opacity="0.35" stroke-width="1" /><line x1="495.97" y1="104.93" x2="367.29" y2="76.84" stroke="#6b7280" stroke-opacity="0.35" stroke-width="1" /><line x1="495.97" y1="104.93" x2="139.05" y2="145.16" stroke="#6b7280" stroke-opacity="0.35" stroke-width="1" /><line x1="495.97" y1="104.93" x2="168.27" y2="123.22" stroke="#6b7280" stroke-opacity="0.35" stroke-width="1" /><line x1="495.97" y1="104.93" x2="81.22" y2="138.80" stroke="#6b7280" stroke-opacity="0.35" stroke-width="1" /></g>
<g id="rects"><rect x="267.01" y="87.74" width="28.86" height="20.11" fill="#1e90ff" fill-opacity="0.07" stroke="#0b3d91" stroke-opacity="0.35" stroke-width="1" /><rect x="893.68" y="69.97" width="28.86" height="20.11" fill="#1e90ff" fill-opacity="0.07" stroke="#0b3d91" stroke-opacity="0.35" stroke-width="1" /><rect x="619.22" y="135.10" width="28.86" height="20.11" fill="#1e90ff" fill-opacity="0.07" stroke="#0b3d91" stroke-opacity="0.35" stroke-width="1" /><rect x="189.47" y="132.09" width="28.86" height="20.11" fill="#1e90ff" fill-opacity="0.07" stroke="#0b3d91" stroke-opacity="0.35" stroke-width="1" /><rect x="766.85" y="84.84" width="28.86" height="20.11" fill="#1e90ff" fill-opacity="0.07" stroke="#0b3d91" stroke-opacity="0.35" stroke-width="1" /><rect x="563.73" y="93.65" width="28.86" height="20.11" fill="#1e90ff" fill-opacity="0.07" stroke="#0b3d91" stroke-opacity="0.35" stroke-width="1" /><rect x="352.86" y="66.79" width="28.86" height="20.11" fill="#1e90ff" fill-opacity="0.07" stroke="#0b3d91" stroke-opacity="0.35" stroke-width="1" /><rect x="124.62" y="135.10" width="28.86" height="20.11" fill="#1e90ff" fill-opacity="0.07" stroke="#0b3d91" stroke-opacity="0.35" stroke-width="1" /><rect x="153.84" y="113.17" width="28.86" height="20.11" fill="#1e90ff" fill-opacity="0.07" stroke="#0b3d91" stroke-opacity="0.35" stroke-width="1" /><rect x="66.79" y="128.74" width="28.86" height="20.11" fill="#1e90ff" fill-opacity="0.07" stroke="#0b3d91" stroke-opacity="0.35" stroke-width="1" /></g>
<g id="anchors"><circle cx="495.97" cy="104.93" r="2.0" fill="#111827" fill-opacity="0.85" /><circle cx="495.97" cy="104.93" r="2.0" fill="#111827" fill-opacity="0.85" /><circle cx="495.97" cy="104.93" r="2.0" fill="#111827" fill-opacity="0.85" /><circle cx="495.97" cy="104.93" r="2.0" fill="#111827" fill-opacity="0.85" /><circle cx="495.97" cy="104.93" r="2.0" fill="#111827" fill-opacity="0.85" /><circle cx="495.97" cy="104.93" r="2.0" fill="#111827" fill-opacity="0.85" /><circle cx="495.97" cy="104.93" r="2.0" fill="#111827" fill-opacity="0.85" /><circle cx="495.97" cy="104.93" r="2.0" fill="#111827" fill-opacity="0.85" /><circle cx="495.97" cy="104.93" r="2.0" fill="#111827" fill-opacity="0.85" /><circle cx="495.97" cy="104.93" r="2.0" fill="#111827" fill-opacity="0.85" /></g>
<g id="labels"><text x="283.44" y="95.80" font-size="10" font-family="ui-monospace, SFMono-Regular, Menlo, Consolas, monospace" fill="#111827" fill-opacity="0.75">0</text><text x="910.11" y="78.02" font-size="10" font-family="ui-monospace, SFMono-Regular, Menlo, Consolas, monospace" fill="#111827" fill-opacity="0.75">1</text><text x="635.65" y="143.16" font-size="10" font-family="ui-monospace, SFMono-Regular, Menlo, Consolas, monospace" fill="#111827" fill-opacity="0.75">2</text><text x="205.89" y="140.15" font-size="10" font-family="ui-monospace, SFMono-Regular, Menlo, Consolas, monospace" fill="#111827" fill-opacity="0.75">3</text><text x="783.28" y="92.89" font-size="10" font-family="ui-monospace, SFMono-Regular, Menlo, Consolas, monospace" fill="#111827" fill-opacity="0.75">4</text><text x="580.15" y="101.71" font-size="10" font-family="ui-monospace, SFMono-Regular, Menlo, Consolas, monospace" fill="#111827" fill-opacity="0.75">5</text><text x="369.29" y="74.84" font-size="10" font-family="ui-monospace, SFMono-Regular, Menlo, Consolas, monospace" fill="#111827" fill-opacity="0.75">6</text><text x="141.05" y="143.16" font-size="10" font-family="ui-monospace, SFMono-Regular, Menlo, Consolas, monospace" fill="#111827" fill-opacity="0.75">7</text><text x="170.27" y="121.22" font-size="10" font-family="ui-monospace, SFMono-Regular, Menlo, Consolas, monospace" fill="#111827" fill-opacity="0.75">8</text><text x="83.22" y="136.80" font-size="10" font-family="ui-monospace, SFMono-Regular, Menlo, Consolas, monospace" fill="#111827" fill-opacity="0.75">9</text></g>
</svg>