<svg xmlns="http://www.w3.org/2000/svg" width="1200" height="236" viewBox="0 0 1200 236">
<rect x="0" y="0" width="100%" height="100%" fill="#fbfbfd" />
<text x="16" y="22" font-size="14" font-family="ui-monospace, SFMono-Regular, Menlo, Consolas, monospace" fill="#111827" fill-opacity="0.9">cluster  iter  iter=6000  n=10</text>
<g id="leaders"><line x1="502.39" y1="117.06" x2="566.56" y2="110.02" stroke="#6b7280" stroke-opacity="0.35" stroke-width="1" /><line x1="502.39" y1="117.06" x2="357.09" y2="77.81" stroke="#6b7280" stroke-opacity="0.35" stroke-width="1" /><line x1="502.39" y1="117.06" x2="685.46" y2="124.55" stroke="#6b7280" stroke-opacity="0.35" stroke-width="1" /><line x1="502.39" y1="117.06" x2="148.41" y2="121.19" stroke="#6b7280" stroke-opacity="0.35" stroke-width="1" /><line x1="502.39" y1="117.06" x2="82.28" y2="148.15" stroke="#6b7280" stroke-opacity="0.35" stroke-width="1" /><line x1="502.39" y1="117.06" x2="923.45" y2="96.69" stroke="#6b7280" stroke-opacity="0.35" stroke-width="1" /><line x1="502.39" y1="117.06" x2="210.86" y2="154.23" stroke="#6b7280" stroke-opacity="0.35" stroke-width="1" /><line x1="502.39" y1="117.06" x2="321.06" y2="107.52" stroke="#6b7280" stroke-opacity="0.35" stroke-width="1" /><line x1="502.39" y1="117.06" x2="151.37" y2="158.19" stroke="#6b7280" stroke-opacity="0.35" stroke-width="1" /><line x1="502.39" y1="117.06" x2="838.70" y2="108.88" stroke="#6b7280" stroke-opacity="0.35" stroke-width="1" /></g>
<g id="rects"><rect x="551.81" y="99.74" width="29.50" height="20.56" fill="#1e90ff" fill-opacity="0.07" stroke="#0b3d91" stroke-opacity="0.35" stroke-width="1" /><rect x="342.34" y="67.53" width="29.50" height="20.56" fill="#1e90ff" fill-opacity="0.07" stroke="#0b3d91" stroke-opacity="0.35" stroke-width="1" /><rect x="670.71" y="114.27" width="29.50" height="20.56" fill="#1e90ff" fill-opacity="0.07" stroke="#0b3d91" stroke-opacity="0.35" stroke-width="1" /><rect x="133.66" y="110.91" width="29.50" height="20.56" fill="#1e90ff" fill-opacity="0.07" stroke="#0b3d91" stroke-opacity="0.35" stroke-width="1" /><rect x="67.53" y="137.87" width="29.50" height="20.56" fill="#1e90ff" fill-opacity="0.07" stroke="#0b3d91" stroke-opacity="0.35" stroke-width="1" /><rect x="908.70" y="86.41" width="29.50" height="20.56" fill="#1e90ff" fill-opacity="0.07" stroke="#0b3d91" stroke-opacity="0.35" stroke-width="1" /><rect x="196.11" y="143.95" width="29.50" height="20.56" fill="#1e90ff" fill-opacity="0.07" stroke="#0b3d91" stroke-opacity="0.35" stroke-width="1" /><rect x="306.31" y="97.24" width="29.50" height="20.56" fill="#1e90ff" fill-opacity="0.07" stroke="#0b3d91" stroke-opacity="0.35" stroke-width="1" /><rect x="136.62" y="147.91" width="29.50" height="20.56" fill="#1e90ff" fill-opacity="0.07" stroke="#0b3d91" stroke-opacity="0.35" stroke-width="1" /><rect x="823.95" y="98.60" width="29.50" height="20.56" fill="#1e90ff" fill-opacity="0.07" stroke="#0b3d91" stroke-opacity="0.35" stroke-width="1" /></g>
<g id="anchors"><circle cx="502.39" cy="117.06" r="2.0" fill="#111827" fill-opacity="0.85" /><circle cx="502.39" cy="117.06" r="2.0" fill="#111827" fill-opacity="0.85" /><circle cx="502.39" cy="117.06" r="2.0" fill="#111827" fill-opacity="0.85" /><circle cx="502.39" cy="117.06" r="2.0" fill="#111827" fill-opacity="0.85" /><circle cx="502.39" cy="117.06" r="2.0" fill="#111827" fill-opacity="0.85" /><circle cx="502.39" cy="117.06" r="2.0" fill="#111827" fill-opacity="0.85" /><circle cx="502.39" cy="117.06" r="2.0" fill="#111827" fill-opacity="0.85" /><circle cx="502.39" cy="117.06" r="2.0" fill="#111827" fill-opacity="0.85" /><circle cx="502.39" cy="117.06" r="2.0" fill="#111827" fill-opacity="0.85" /><circle cx="502.39" cy="117.06" r="2.0" fill="#111827" fill-opacity="0.85" /></g>
<g id="labels"><text x="568.56" y="108.02" font-size="10" font-family="ui-monospace, SFMono-Regular, Menlo, Consolas, monospace" fill="#111827" fill-opacity="0.75">0</text><text x="359.09" y="75.81" font-size="10" font-family="ui-monospace, SFMono-Regular, Menlo, Consolas, monospace" fill="#111827" fill-opacity="0.75">1</text><text x="687.46" y="122.55" font-size="10" font-family="ui-monospace, SFMono-Regular, Menlo, Consolas, monospace" fill="#111827" fill-opacity="0.75">2</text><text x="150.41" y="119.19" font-size="10" font-family="ui-monospace, SFMono-Regular, Menlo, Consolas, monospace" fill="#111827" fill-opacity="0.75">3</text><text x="84.28" y="146.15" font-size="10" font-family="ui-monospace, SFMono-Regular, Menlo, Consolas, monospace" fill="#111827" fill-opacity="0.75">4</text><text x="925.45" y="94.69" font-size="10" font-family="ui-monospace, SFMono-Regular, Menlo, Consolas, monospace" fill="#111827" fill-opacity="0.75">5</text><text x="212.86" y="152.23" font-size="10" font-family="ui-monospace, SFMono-Regular, Menlo, Consolas, monospace" fill="#111827" fill-opacity="0.75">6</text><text x="323.06" y="105.52" font-size="10" font-family="ui-monospace, SFMono-Regular, Menlo, Consolas, monospace" fill="#111827" fill-opacity="0.75">7</text><text x="153.37" y="156.19" font-size="10" font-family="ui-monospace, SFMono-Regular, Menlo, Consolas, monospace" fill="#111827" fill-opacity="0.75">8</text><text x="840.70" y="106.88" font-size="10" font-family="ui-monospace, SFMono-Regular, Menlo, Consolas, monospace" fill="#111827" fill-opacity="0.75">9</text></g>
</svg>