<svg xmlns="http://www.w3.org/2000/svg" width="1200" height="218" viewBox="0 0 1200 218">
<rect x="0" y="0" width="100%" height="100%" fill="#fbfbfd" />
<text x="16" y="22" font-size="14" font-family="ui-monospace, SFMono-Regular, Menlo, Consolas, monospace" fill="#111827" fill-opacity="0.9">cluster  end  iter=25052  n=10</text>
<g id="leaders"><line x1="489.99" y1="99.79" x2="125.83" y2="139.57" stroke="#6b7280" stroke-opacity="0.35" stroke-width="1" /><line x1="489.99" y1="99.79" x2="903.34" y2="78.15" stroke="#6b7280" stroke-opacity="0.35" stroke-width="1" /><line x1="489.99" y1="99.79" x2="622.08" y2="141.09" stroke="#6b7280" stroke-opacity="0.35" stroke-width="1" /><line x1="489.99" y1="99.79" x2="271.75" y2="88.66" stroke="#6b7280" stroke-opacity="0.35" stroke-width="1" /><line x1="489.99" y1="99.79" x2="785.30" y2="90.46" stroke="#6b7280" stroke-opacity="0.35" stroke-width="1" /><line x1="489.99" y1="99.79" x2="160.99" y2="103.46" stroke="#6b7280" stroke-opacity="0.35" stroke-width="1" /><line x1="489.99" y1="99.79" x2="579.28" y2="92.79" stroke="#6b7280" stroke-opacity="0.35" stroke-width="1" /><line x1="489.99" y1="99.79" x2="352.27" y2="76.91" stroke="#6b7280" stroke-opacity="0.35" stroke-width="1" /><line x1="489.99" y1="99.79" x2="201.90" y2="130.26" stroke="#6b7280" stroke-opacity="0.35" stroke-width="1" /><line x1="489.99" y1="99.79" x2="81.40" y2="130.91" stroke="#6b7280" stroke-opacity="0.35" stroke-width="1" /></g>
<g id="rects"><rect x="111.01" y="129.25" width="29.63" height="20.65" fill="#1e90ff" fill-opacity="0.07" stroke="#0b3d91" stroke-opacity="0.35" stroke-width="1" /><rect x="888.52" y="67.82" width="29.63" height="20.65" fill="#1e90ff" fill-opacity="0.07" stroke="#0b3d91" stroke-opacity="0.35" stroke-width="1" /><rect x="607.26" y="130.77" width="29.63" height="20.65" fill="#1e90ff" fill-opacity="0.07" stroke="#0b3d91" stroke-opacity="0.35" stroke-width="1" /><rect x="256.94" y="78.34" width="29.63" height="20.65" fill="#1e90ff" fill-opacity="0.07" stroke="#0b3d91" stroke-opacity="0.35" stroke-width="1" /><rect x="770.49" y="80.14" width="29.63" height="20.65" fill="#1e90ff" fill-opacity="0.07" stroke="#0b3d91" stroke-opacity="0.35" stroke-width="1" /><rect x="146.17" y="93.14" width="29.63" height="20.65" fill="#1e90ff" fill-opacity="0.07" stroke="#0b3d91" stroke-opacity="0.35" stroke-width="1" /><rect x="564.46" y="82.46" width="29.63" height="20.65" fill="#1e90ff" fill-opacity="0.07" stroke="#0b3d91" stroke-opacity="0.35" stroke-width="1" /><rect x="337.45" y="66.58" width="29.63" height="20.65" fill="#1e90ff" fill-opacity="0.07" stroke="#0b3d91" stroke-opacity="0.35" stroke-width="1" /><rect x="187.08" y="119.93" width="29.63" height="20.65" fill="#1e90ff" fill-opacity="0.07" stroke="#0b3d91" stroke-opacity="0.35" stroke-width="1" /><rect x="66.58" y="120.58" width="29.63" height="20.65" fill="#1e90ff" fill-opacity="0.07" stroke="#0b3d91" stroke-opacity="0.35" stroke-width="1" /></g>
<g id="anchors"><circle cx="489.99" cy="99.79" r="2.0" fill="#111827" fill-opacity="0.85" /><circle cx="489.99" cy="99.79" r="2.0" fill="#111827" fill-opacity="0.85" /><circle cx="489.99" cy="99.79" r="2.0" fill="#111827" fill-opacity="0.85" /><circle cx="489.99" cy="99.79" r="2.0" fill="#111827" fill-opacity="0.85" /><circle cx="489.99" cy="99.79" r="2.0" fill="#111827" fill-opacity="0.85" /><circle cx="489.99" cy="99.79" r="2.0" fill="#111827" fill-opacity="0.85" /><circle cx="489.99" cy="99.79" r="2.0" fill="#111827" fill-opacity="0.85" /><circle cx="489.99" cy="99.79" r="2.0" fill="#111827" fill-opacity="0.85" /><circle cx="489.99" cy="99.79" r="2.0" fill="#111827" fill-opacity="0.85" /><circle cx="489.99" cy="99.79" r="2.0" fill="#111827" fill-opacity="0.85" /></g>
<g id="labels"><text x="127.83" y="137.57" font-size="10" font-family="ui-monospace, SFMono-Regular, Menlo, Consolas, monospace" fill="#111827" fill-opacity="0.75">0</text><text x="905.34" y="76.15" font-size="10" font-family="ui-monospace, SFMono-Regular, Menlo, Consolas, monospace" fill="#111827" fill-opacity="0.75">1</text><text x="624.08" y="139.09" font-size="10" font-family="ui-monospace, SFMono-Regular, Menlo, Consolas, monospace" fill="#111827" fill-opacity="0.75">2</text><text x="273.75" y="86.66" font-size="10" font-family="ui-monospace, SFMono-Regular, Menlo, Consolas, monospace" fill="#111827" fill-opacity="0.75">3</text><text x="787.30" y="88.46" font-size="10" font-family="ui-monospace, SFMono-Regular, Menlo, Consolas, monospace" fill="#111827" fill-opacity="0.75">4</text><text x="162.99" y="101.46" font-size="10" font-family="ui-monospace, SFMono-Regular, Menlo, Consolas, monospace" fill="#111827" fill-opacity="0.75">5</text><text x="581.28" y="90.79" font-size="10" font-family="ui-monospace, SFMono-Regular, Menlo, Consolas, monospace" fill="#111827" fill-opacity="0.75">6</text><text x="354.27" y="74.91" font-size="10" font-family="ui-monospace, SFMono-Regular, Menlo, Consolas, monospace" fill="#111827" fill-opacity="0.75">7</text><text x="203.90" y="128.26" font-size="10" font-family="ui-monospace, SFMono-Regular, Menlo, Consolas, monospace" fill="#111827" fill-opacity="0.75">8</text><text x="83.40" y="128.91" font-size="10" font-family="ui-monospace, SFMono-Regular, Menlo, Consolas, monospace" fill="#111827" fill-opacity="0.75">9</text></g>
</svg>