<svg xmlns="http://www.w3.org/2000/svg" width="1200" height="219" viewBox="0 0 1200 219">
<rect x="0" y="0" width="100%" height="100%" fill="#fbfbfd" />
<text x="16" y="22" font-size="14" font-family="ui-monospace, SFMono-Regular, Menlo, Consolas, monospace" fill="#111827" fill-opacity="0.9">cluster  iter  iter=7000  n=10</text>
<g id="leaders"><line x1="498.19" y1="117.18" x2="819.44" y2="140.49" stroke="#6b7280" stroke-opacity="0.35" stroke-width="1" /><line x1="498.19" y1="117.18" x2="232.05" y2="126.75" stroke="#6b7280" stroke-opacity="0.35" stroke-width="1" /><line x1="498.19" y1="117.18" x2="317.50" y2="109.17" stroke="#6b7280" stroke-opacity="0.35" stroke-width="1" /><line x1="498.19" y1="117.18" x2="901.83" y2="76.63" stroke="#6b7280" stroke-opacity="0.35" stroke-width="1" /><line x1="498.19" y1="117.18" x2="127.70" y2="142.37" stroke="#6b7280" stroke-opacity="0.35" stroke-width="1" /><line x1="498.19" y1="117.18" x2="81.04" y2="136.85" stroke="#6b7280" stroke-opacity="0.35" stroke-width="1" /><line x1="498.19" y1="117.18" x2="354.90" y2="78.83" stroke="#6b7280" stroke-opacity="0.35" stroke-width="1" /><line x1="498.19" y1="117.18" x2="172.67" y2="126.63" stroke="#6b7280" stroke-opacity="0.35" stroke-width="1" /><line x1="498.19" y1="117.18" x2="676.22" y2="97.19" stroke="#6b7280" stroke-opacity="0.35" stroke-width="1" /><line x1="498.19" y1="117.18" x2="555.09" y2="95.43" stroke="#6b7280" stroke-opacity="0.35" stroke-width="1" /></g>
<g id="rects"><rect x="804.90" y="130.36" width="29.09" height="20.27" fill="#1e90ff" fill-opacity="0.07" stroke="#0b3d91" stroke-opacity="0.35" stroke-width="1" /><rect x="217.50" y="116.62" width="29.09" height="20.27" fill="#1e90ff" fill-opacity="0.07" stroke="#0b3d91" stroke-opacity="0.35" stroke-width="1" /><rect x="302.95" y="99.03" width="29.09" height="20.27" fill="#1e90ff" fill-opacity="0.07" stroke="#0b3d91" stroke-opacity="0.35" stroke-width="1" /><rect x="887.28" y="66.49" width="29.09" height="20.27" fill="#1e90ff" fill-opacity="0.07" stroke="#0b3d91" stroke-opacity="0.35" stroke-width="1" /><rect x="113.16" y="132.23" width="29.09" height="20.27" fill="#1e90ff" fill-opacity="0.07" stroke="#0b3d91" stroke-opacity="0.35" stroke-width="1" /><rect x="66.49" y="126.72" width="29.09" height="20.27" fill="#1e90ff" fill-opacity="0.07" stroke="#0b3d91" stroke-opacity="0.35" stroke-width="1" /><rect x="340.36" y="68.69" width="29.09" height="20.27" fill="#1e90ff" fill-opacity="0.07" stroke="#0b3d91" stroke-opacity="0.35" stroke-width="1" /><rect x="158.12" y="116.49" width="29.09" height="20.27" fill="#1e90ff" fill-opacity="0.07" stroke="#0b3d91" stroke-opacity="0.35" stroke-width="1" /><rect x="661.67" y="87.05" width="29.09" height="20.27" fill="#1e90ff" fill-opacity="0.07" stroke="#0b3d91" stroke-opacity="0.35" stroke-width="1" /><rect x="540.55" y="85.29" width="29.09" height="20.27" fill="#1e90ff" fill-opacity="0.07" stroke="#0b3d91" stroke-opacity="0.35" stroke-width="1" /></g>
<g id="anchors"><circle cx="498.19" cy="117.18" r="2.0" fill="#111827" fill-opacity="0.85" /><circle cx="498.19" cy="117.18" r="2.0" fill="#111827" fill-opacity="0.85" /><circle cx="498.19" cy="117.18" r="2.0" fill="#111827" fill-opacity="0.85" /><circle cx="498.19" cy="117.18" r="2.0" fill="#111827" fill-opacity="0.85" /><circle cx="498.19" cy="117.18" r="2.0" fill="#111827" fill-opacity="0.85" /><circle cx="498.19" cy="117.18" r="2.0" fill="#111827" fill-opacity="0.85" /><circle cx="498.19" cy="117.18" r="2.0" fill="#111827" fill-opacity="0.85" /><circle cx="498.19" cy="117.18" r="2.0" fill="#111827" fill-opacity="0.85" /><circle cx="498.19" cy="117.18" r="2.0" fill="#111827" fill-opacity="0.85" /><circle cx="498.19" cy="117.18" r="2.0" fill="#111827" fill-opacity="0.85" /></g>
<g id="labels"><text x="821.44" y="138.49" font-size="10" font-family="ui-monospace, SFMono-Regular, Menlo, Consolas, monospace" fill="#111827" fill-opacity="0.75">0</text><text x="234.05" y="124.75" font-size="10" font-family="ui-monospace, SFMono-Regular, Menlo, Consolas, monospace" fill="#111827" fill-opacity="0.75">1</text><text x="319.50" y="107.17" font-size="10" font-family="ui-monospace, SFMono-Regular, Menlo, Consolas, monospace" fill="#111827" fill-opacity="0.75">2</text><text x="903.83" y="74.63" font-size="10" font-family="ui-monospace, SFMono-Regular, Menlo, Consolas, monospace" fill="#111827" fill-opacity="0.75">3</text><text x="129.70" y="140.37" font-size="10" font-family="ui-monospace, SFMono-Regular, Menlo, Consolas, monospace" fill="#111827" fill-opacity="0.75">4</text><text x="83.04" y="134.85" font-size="10" font-family="ui-monospace, SFMono-Regular, Menlo, Consolas, monospace" fill="#111827" fill-opacity="0.75">5</text><text x="356.90" y="76.83" font-size="10" font-family="ui-monospace, SFMono-Regular, Menlo, Consolas, monospace" fill="#111827" fill-opacity="0.75">6</text><text x="174.67" y="124.63" font-size="10" font-family="ui-monospace, SFMono-Regular, Menlo, Consolas, monospace" fill="#111827" fill-opacity="0.75">7</text><text x="678.22" y="95.19" font-size="10" font-family="ui-monospace, SFMono-Regular, Menlo, Consolas, monospace" fill="#111827" fill-opacity="0.75">8</text><text x="557.09" y="93.43" font-size="10" font-family="ui-monospace, SFMono-Regular, Menlo, Consolas, monospace" fill="#111827" fill-opacity="0.75">9</text></g>
</svg>