<svg xmlns="http://www.w3.org/2000/svg" width="1200" height="223" viewBox="0 0 1200 223">
<rect x="0" y="0" width="100%" height="100%" fill="#fbfbfd" />
<text x="16" y="22" font-size="14" font-family="ui-monospace, SFMono-Regular, Menlo, Consolas, monospace" fill="#111827" fill-opacity="0.9">cluster  iter  iter=10000  n=10</text>
<g id="leaders"><line x1="493.53" y1="113.98" x2="337.34" y2="76.73" stroke="#6b7280" stroke-opacity="0.35" stroke-width="1" /><line x1="493.53" y1="113.98" x2="539.87" y2="96.94" stroke="#6b7280" stroke-opacity="0.35" stroke-width="1" /><line x1="493.53" y1="113.98" x2="906.93" y2="80.08" stroke="#6b7280" stroke-opacity="0.35" stroke-width="1" /><line x1="493.53" y1="113.98" x2="669.40" y2="81.44" stroke="#6b7280" stroke-opacity="0.35" stroke-width="1" /><line x1="493.53" y1="113.98" x2="301.97" y2="93.56" stroke="#6b7280" stroke-opacity="0.35" stroke-width="1" /><line x1="493.53" y1="113.98" x2="81.08" y2="127.49" stroke="#6b7280" stroke-opacity="0.35" stroke-width="1" /><line x1="493.53" y1="113.98" x2="137.59" y2="136.96" stroke="#6b7280" stroke-opacity="0.35" stroke-width="1" /><line x1="493.53" y1="113.98" x2="173.50" y2="109.76" stroke="#6b7280" stroke-opacity="0.35" stroke-width="1" /><line x1="493.53" y1="113.98" x2="793.96" y2="146.27" stroke="#6b7280" stroke-opacity="0.35" stroke-width="1" /><line x1="493.53" y1="113.98" x2="225.80" y2="131.09" stroke="#6b7280" stroke-opacity="0.35" stroke-width="1" /></g>
<g id="rects"><rect x="322.99" y="66.73" width="28.71" height="20.01" fill="#1e90ff" fill-opacity="0.07" stroke="#0b3d91" stroke-opacity="0.35" stroke-width="1" /><rect x="525.51" y="86.94" width="28.71" height="20.01" fill="#1e90ff" fill-opacity="0.07" stroke="#0b3d91" stroke-opacity="0.35" stroke-width="1" /><rect x="892.57" y="70.07" width="28.71" height="20.01" fill="#1e90ff" fill-opacity="0.07" stroke="#0b3d91" stroke-opacity="0.35" stroke-width="1" /><rect x="655.05" y="71.43" width="28.71" height="20.01" fill="#1e90ff" fill-opacity="0.07" stroke="#0b3d91" stroke-opacity="0.35" stroke-width="1" /><rect x="287.62" y="83.56" width="28.71" height="20.01" fill="#1e90ff" fill-opacity="0.07" stroke="#0b3d91" stroke-opacity="0.35" stroke-width="1" /><rect x="66.73" y="117.48" width="28.71" height="20.01" fill="#1e90ff" fill-opacity="0.07" stroke="#0b3d91" stroke-opacity="0.35" stroke-width="1" /><rect x="123.23" y="126.96" width="28.71" height="20.01" fill="#1e90ff" fill-opacity="0.07" stroke="#0b3d91" stroke-opacity="0.35" stroke-width="1" /><rect x="159.15" y="99.76" width="28.71" height="20.01" fill="#1e90ff" fill-opacity="0.07" stroke="#0b3d91" stroke-opacity="0.35" stroke-width="1" /><rect x="779.61" y="136.26" width="28.71" height="20.01" fill="#1e90ff" fill-opacity="0.07" stroke="#0b3d91" stroke-opacity="0.35" stroke-width="1" /><rect x="211.45" y="121.08" width="28.71" height="20.01" fill="#1e90ff" fill-opacity="0.07" stroke="#0b3d91" stroke-opacity="0.35" stroke-width="1" /></g>
<g id="anchors"><circle cx="493.53" cy="113.98" r="2.0" fill="#111827" fill-opacity="0.85" /><circle cx="493.53" cy="113.98" r="2.0" fill="#111827" fill-opacity="0.85" /><circle cx="493.53" cy="113.98" r="2.0" fill="#111827" fill-opacity="0.85" /><circle cx="493.53" cy="113.98" r="2.0" fill="#111827" fill-opacity="0.85" /><circle cx="493.53" cy="113.98" r="2.0" fill="#111827" fill-opacity="0.85" /><circle cx="493.53" cy="113.98" r="2.0" fill="#111827" fill-opacity="0.85" /><circle cx="493.53" cy="113.98" r="2.0" fill="#111827" fill-opacity="0.85" /><circle cx="493.53" cy="113.98" r="2.0" fill="#111827" fill-opacity="0.85" /><circle cx="493.53" cy="113.98" r="2.0" fill="#111827" fill-opacity="0.85" /><circle cx="493.53" cy="113.98" r="2.0" fill="#111827" fill-opacity="0.85" /></g>
<g id="labels"><text x="339.34" y="74.73" font-size="10" font-family="ui-monospace, SFMono-Regular, Menlo, Consolas, monospace" fill="#111827" fill-opacity="0.75">0</text><text x="541.87" y="94.94" font-size="10" font-family="ui-monospace, SFMono-Regular, Menlo, Consolas, monospace" fill="#111827" fill-opacity="0.75">1</text><text x="908.93" y="78.08" font-size="10" font-family="ui-monospace, SFMono-Regular, Menlo, Consolas, monospace" fill="#111827" fill-opacity="0.75">2</text><text x="671.40" y="79.44" font-size="10" font-family="ui-monospace, SFMono-Regular, Menlo, Consolas, monospace" fill="#111827" fill-opacity="0.75">3</text><text x="303.97" y="91.56" font-size="10" font-family="ui-monospace, SFMono-Regular, Menlo, Consolas, monospace" fill="#111827" fill-opacity="0.75">4</text><text x="83.08" y="125.49" font-size="10" font-family="ui-monospace, SFMono-Regular, Menlo, Consolas, monospace" fill="#111827" fill-opacity="0.75">5</text><text x="139.59" y="134.96" font-size="10" font-family="ui-monospace, SFMono-Regular, Menlo, Consolas, monospace" fill="#111827" fill-opacity="0.75">6</text><text x="175.50" y="107.76" font-size="10" font-family="ui-monospace, SFMono-Regular, Menlo, Consolas, monospace" fill="#111827" fill-opacity="0.75">7</text><text x="795.96" y="144.27" font-size="10" font-family="ui-monospace, SFMono-Regular, Menlo, Consolas, monospace" fill="#111827" fill-opacity="0.75">8</text><text x="227.80" y="129.09" font-size="10" font-family="ui-monospace, SFMono-Regular, Menlo, Consolas, monospace" fill="#111827" fill-opacity="0.75">9</text></g>
</svg>