<svg xmlns="http://www.w3.org/2000/svg" width="1200" height="219" viewBox="0 0 1200 219">
<rect x="0" y="0" width="100%" height="100%" fill="#fbfbfd" />
<text x="16" y="22" font-size="14" font-family="ui-monospace, SFMono-Regular, Menlo, Consolas, monospace" fill="#111827" fill-opacity="0.9">cluster  iter  iter=4000  n=10</text>
<g id="leaders"><line x1="481.62" y1="102.43" x2="902.84" y2="81.63" stroke="#6b7280" stroke-opacity="0.35" stroke-width="1" /><line x1="481.62" y1="102.43" x2="753.64" y2="101.79" stroke="#6b7280" stroke-opacity="0.35" stroke-width="1" /><line x1="481.62" y1="102.43" x2="263.06" y2="142.46" stroke="#6b7280" stroke-opacity="0.35" stroke-width="1" /><line x1="481.62" y1="102.43" x2="80.89" y2="142.46" stroke="#6b7280" stroke-opacity="0.35" stroke-width="1" /><line x1="481.62" y1="102.43" x2="682.41" y2="109.11" stroke="#6b7280" stroke-opacity="0.35" stroke-width="1" /><line x1="481.62" y1="102.43" x2="128.21" y2="136.17" stroke="#6b7280" stroke-opacity="0.35" stroke-width="1" /><line x1="481.62" y1="102.43" x2="228.71" y2="76.54" stroke="#6b7280" stroke-opacity="0.35" stroke-width="1" /><line x1="481.62" y1="102.43" x2="119.21" y2="97.65" stroke="#6b7280" stroke-opacity="0.35" stroke-width="1" /><line x1="481.62" y1="102.43" x2="346.36" y2="125.35" stroke="#6b7280" stroke-opacity="0.35" stroke-width="1" /><line x1="481.62" y1="102.43" x2="597.73" y2="111.22" stroke="#6b7280" stroke-opacity="0.35" stroke-width="1" /></g>
<g id="rects"><rect x="888.48" y="71.62" width="28.72" height="20.02" fill="#1e90ff" fill-opacity="0.07" stroke="#0b3d91" stroke-opacity="0.35" stroke-width="1" /><rect x="739.28" y="91.78" width="28.72" height="20.02" fill="#1e90ff" fill-opacity="0.07" stroke="#0b3d91" stroke-opacity="0.35" stroke-width="1" /><rect x="248.70" y="132.45" width="28.72" height="20.02" fill="#1e90ff" fill-opacity="0.07" stroke="#0b3d91" stroke-opacity="0.35" stroke-width="1" /><rect x="66.53" y="132.45" width="28.72" height="20.02" fill="#1e90ff" fill-opacity="0.07" stroke="#0b3d91" stroke-opacity="0.35" stroke-width="1" /><rect x="668.05" y="99.11" width="28.72" height="20.02" fill="#1e90ff" fill-opacity="0.07" stroke="#0b3d91" stroke-opacity="0.35" stroke-width="1" /><rect x="113.85" y="126.16" width="28.72" height="20.02" fill="#1e90ff" fill-opacity="0.07" stroke="#0b3d91" stroke-opacity="0.35" stroke-width="1" /><rect x="214.35" y="66.53" width="28.72" height="20.02" fill="#1e90ff" fill-opacity="0.07" stroke="#0b3d91" stroke-opacity="0.35" stroke-width="1" /><rect x="104.85" y="87.64" width="28.72" height="20.02" fill="#1e90ff" fill-opacity="0.07" stroke="#0b3d91" stroke-opacity="0.35" stroke-width="1" /><rect x="332.00" y="115.34" width="28.72" height="20.02" fill="#1e90ff" fill-opacity="0.07" stroke="#0b3d91" stroke-opacity="0.35" stroke-width="1" /><rect x="583.37" y="101.22" width="28.72" height="20.02" fill="#1e90ff" fill-opacity="0.07" stroke="#0b3d91" stroke-opacity="0.35" stroke-width="1" /></g>
<g id="anchors"><circle cx="481.62" cy="102.43" r="2.0" fill="#111827" fill-opacity="0.85" /><circle cx="481.62" cy="102.43" r="2.0" fill="#111827" fill-opacity="0.85" /><circle cx="481.62" cy="102.43" r="2.0" fill="#111827" fill-opacity="0.85" /><circle cx="481.62" cy="102.43" r="2.0" fill="#111827" fill-opacity="0.85" /><circle cx="481.62" cy="102.43" r="2.0" fill="#111827" fill-opacity="0.85" /><circle cx="481.62" cy="102.43" r="2.0" fill="#111827" fill-opacity="0.85" /><circle cx="481.62" cy="102.43" r="2.0" fill="#111827" fill-opacity="0.85" /><circle cx="481.62" cy="102.43" r="2.0" fill="#111827" fill-opacity="0.85" /><circle cx="481.62" cy="102.43" r="2.0" fill="#111827" fill-opacity="0.85" /><circle cx="481.62" cy="102.43" r="2.0" fill="#111827" fill-opacity="0.85" /></g>
<g id="labels"><text x="904.84" y="79.63" font-size="10" font-family="ui-monospace, SFMono-Regular, Menlo, Consolas, monospace" fill="#111827" fill-opacity="0.75">0</text><text x="755.64" y="99.79" font-size="10" font-family="ui-monospace, SFMono-Regular, Menlo, Consolas, monospace" fill="#111827" fill-opacity="0.75">1</text><text x="265.06" y="140.46" font-size="10" font-family="ui-monospace, SFMono-Regular, Menlo, Consolas, monospace" fill="#111827" fill-opacity="0.75">2</text><text x="82.89" y="140.46" font-size="10" font-family="ui-monospace, SFMono-Regular, Menlo, Consolas, monospace" fill="#111827" fill-opacity="0.75">3</text><text x="684.41" y="107.11" font-size="10" font-family="ui-monospace, SFMono-Regular, Menlo, Consolas, monospace" fill="#111827" fill-opacity="0.75">4</text><text x="130.21" y="134.17" font-size="10" font-family="ui-monospace, SFMono-Regular, Menlo, Consolas, monospace" fill="#111827" fill-opacity="0.75">5</text><text x="230.71" y="74.54" font-size="10" font-family="ui-monospace, SFMono-Regular, Menlo, Consolas, monospace" fill="#111827" fill-opacity="0.75">6</text><text x="121.21" y="95.65" font-size="10" font-family="ui-monospace, SFMono-Regular, Menlo, Consolas, monospace" fill="#111827" fill-opacity="0.75">7</text><text x="348.36" y="123.35" font-size="10" font-family="ui-monospace, SFMono-Regular, Menlo, Consolas, monospace" fill="#111827" fill-opacity="0.75">8</text><text x="599.73" y="109.22" font-size="10" font-family="ui-monospace, SFMono-Regular, Menlo, Consolas, monospace" fill="#111827" fill-opacity="0.75">9</text></g>
</svg>