<svg xmlns="http://www.w3.org/2000/svg" width="1200" height="225" viewBox="0 0 1200 225">
<rect x="0" y="0" width="100%" height="100%" fill="#fbfbfd" />
<text x="16" y="22" font-size="14" font-family="ui-monospace, SFMono-Regular, Menlo, Consolas, monospace" fill="#111827" fill-opacity="0.9">cluster  iter  iter=12000  n=10</text>
<g id="leaders"><line x1="497.70" y1="112.61" x2="230.71" y2="130.50" stroke="#6b7280" stroke-opacity="0.35" stroke-width="1" /><line x1="497.70" y1="112.61" x2="307.62" y2="91.49" stroke="#6b7280" stroke-opacity="0.35" stroke-width="1" /><line x1="497.70" y1="112.61" x2="673.79" y2="80.43" stroke="#6b7280" stroke-opacity="0.35" stroke-width="1" /><line x1="497.70" y1="112.61" x2="545.01" y2="94.70" stroke="#6b7280" stroke-opacity="0.35" stroke-width="1" /><line x1="497.70" y1="112.61" x2="81.36" y2="124.88" stroke="#6b7280" stroke-opacity="0.35" stroke-width="1" /><line x1="497.70" y1="112.61" x2="795.95" y2="148.00" stroke="#6b7280" stroke-opacity="0.35" stroke-width="1" /><line x1="497.70" y1="112.61" x2="339.84" y2="77.00" stroke="#6b7280" stroke-opacity="0.35" stroke-width="1" /><line x1="497.70" y1="112.61" x2="177.05" y2="108.34" stroke="#6b7280" stroke-opacity="0.35" stroke-width="1" /><line x1="497.70" y1="112.61" x2="911.95" y2="77.22" stroke="#6b7280" stroke-opacity="0.35" stroke-width="1" /><line x1="497.70" y1="112.61" x2="141.47" y2="135.56" stroke="#6b7280" stroke-opacity="0.35" stroke-width="1" /></g>
<g id="rects"><rect x="216.32" y="120.47" width="28.78" height="20.06" fill="#1e90ff" fill-opacity="0.07" stroke="#0b3d91" stroke-opacity="0.35" stroke-width="1" /><rect x="293.23" y="81.46" width="28.78" height="20.06" fill="#1e90ff" fill-opacity="0.07" stroke="#0b3d91" stroke-opacity="0.35" stroke-width="1" /><rect x="659.40" y="70.41" width="28.78" height="20.06" fill="#1e90ff" fill-opacity="0.07" stroke="#0b3d91" stroke-opacity="0.35" stroke-width="1" /><rect x="530.62" y="84.67" width="28.78" height="20.06" fill="#1e90ff" fill-opacity="0.07" stroke="#0b3d91" stroke-opacity="0.35" stroke-width="1" /><rect x="66.97" y="114.85" width="28.78" height="20.06" fill="#1e90ff" fill-opacity="0.07" stroke="#0b3d91" stroke-opacity="0.35" stroke-width="1" /><rect x="781.57" y="137.97" width="28.78" height="20.06" fill="#1e90ff" fill-opacity="0.07" stroke="#0b3d91" stroke-opacity="0.35" stroke-width="1" /><rect x="325.46" y="66.97" width="28.78" height="20.06" fill="#1e90ff" fill-opacity="0.07" stroke="#0b3d91" stroke-opacity="0.35" stroke-width="1" /><rect x="162.66" y="98.31" width="28.78" height="20.06" fill="#1e90ff" fill-opacity="0.07" stroke="#0b3d91" stroke-opacity="0.35" stroke-width="1" /><rect x="897.57" y="67.19" width="28.78" height="20.06" fill="#1e90ff" fill-opacity="0.07" stroke="#0b3d91" stroke-opacity="0.35" stroke-width="1" /><rect x="127.09" y="125.53" width="28.78" height="20.06" fill="#1e90ff" fill-opacity="0.07" stroke="#0b3d91" stroke-opacity="0.35" stroke-width="1" /></g>
<g id="anchors"><circle cx="497.70" cy="112.61" r="2.0" fill="#111827" fill-opacity="0.85" /><circle cx="497.70" cy="112.61" r="2.0" fill="#111827" fill-opacity="0.85" /><circle cx="497.70" cy="112.61" r="2.0" fill="#111827" fill-opacity="0.85" /><circle cx="497.70" cy="112.61" r="2.0" fill="#111827" fill-opacity="0.85" /><circle cx="497.70" cy="112.61" r="2.0" fill="#111827" fill-opacity="0.85" /><circle cx="497.70" cy="112.61" r="2.0" fill="#111827" fill-opacity="0.85" /><circle cx="497.70" cy="112.61" r="2.0" fill="#111827" fill-opacity="0.85" /><circle cx="497.70" cy="112.61" r="2.0" fill="#111827" fill-opacity="0.85" /><circle cx="497.70" cy="112.61" r="2.0" fill="#111827" fill-opacity="0.85" /><circle cx="497.70" cy="112.61" r="2.0" fill="#111827" fill-opacity="0.85" /></g>
<g id="labels"><text x="232.71" y="128.50" font-size="10" font-family="ui-monospace, SFMono-Regular, Menlo, Consolas, monospace" fill="#111827" fill-opacity="0.75">0</text><text x="309.62" y="89.49" font-size="10" font-family="ui-monospace, SFMono-Regular, Menlo, Consolas, monospace" fill="#111827" fill-opacity="0.75">1</text><text x="675.79" y="78.43" font-size="10" font-family="ui-monospace, SFMono-Regular, Menlo, Consolas, monospace" fill="#111827" fill-opacity="0.75">2</text><text x="547.01" y="92.70" font-size="10" font-family="ui-monospace, SFMono-Regular, Menlo, Consolas, monospace" fill="#111827" fill-opacity="0.75">3</text><text x="83.36" y="122.88" font-size="10" font-family="ui-monospace, SFMono-Regular, Menlo, Consolas, monospace" fill="#111827" fill-opacity="0.75">4</text><text x="797.95" y="146.00" font-size="10" font-family="ui-monospace, SFMono-Regular, Menlo, Consolas, monospace" fill="#111827" fill-opacity="0.75">5</text><text x="341.84" y="75.00" font-size="10" font-family="ui-monospace, SFMono-Regular, Menlo, Consolas, monospace" fill="#111827" fill-opacity="0.75">6</text><text x="179.05" y="106.34" font-size="10" font-family="ui-monospace, SFMono-Regular, Menlo, Consolas, monospace" fill="#111827" fill-opacity="0.75">7</text><text x="913.95" y="75.22" font-size="10" font-family="ui-monospace, SFMono-Regular, Menlo, Consolas, monospace" fill="#111827" fill-opacity="0.75">8</text><text x="143.47" y="133.56" font-size="10" font-family="ui-monospace, SFMono-Regular, Menlo, Consolas, monospace" fill="#111827" fill-opacity="0.75">9</text></g>
</svg>