<svg xmlns="http://www.w3.org/2000/svg" width="1200" height="269" viewBox="0 0 1200 269">
<rect x="0" y="0" width="100%" height="100%" fill="#fbfbfd" />
<text x="16" y="22" font-size="14" font-family="ui-monospace, SFMono-Regular, Menlo, Consolas, monospace" fill="#111827" fill-opacity="0.9">cluster  iter  iter=1000  n=10</text>
<g id="leaders"><line x1="670.76" y1="134.50" x2="297.53" y2="82.01" stroke="#6b7280" stroke-opacity="0.35" stroke-width="1" /><line x1="670.76" y1="134.50" x2="319.42" y2="82.01" stroke="#6b7280" stroke-opacity="0.35" stroke-width="1" /><line x1="670.76" y1="134.50" x2="825.07" y2="186.99" stroke="#6b7280" stroke-opacity="0.35" stroke-width="1" /><line x1="670.76" y1="134.50" x2="280.64" y2="186.99" stroke="#6b7280" stroke-opacity="0.35" stroke-width="1" /><line x1="670.76" y1="134.50" x2="87.72" y2="122.05" stroke="#6b7280" stroke-opacity="0.35" stroke-width="1" /><line x1="670.76" y1="134.50" x2="752.17" y2="136.14" stroke="#6b7280" stroke-opacity="0.35" stroke-width="1" /><line x1="670.76" y1="134.50" x2="520.53" y2="93.19" stroke="#6b7280" stroke-opacity="0.35" stroke-width="1" /><line x1="670.76" y1="134.50" x2="947.84" y2="86.06" stroke="#6b7280" stroke-opacity="0.35" stroke-width="1" /><line x1="670.76" y1="134.50" x2="381.23" y2="105.35" stroke="#6b7280" stroke-opacity="0.35" stroke-width="1" /><line x1="670.76" y1="134.50" x2="291.14" y2="124.27" stroke="#6b7280" stroke-opacity="0.35" stroke-width="1" /></g>
<g id="rects"><rect x="278.70" y="68.89" width="37.65" height="26.24" fill="#1e90ff" fill-opacity="0.07" stroke="#0b3d91" stroke-opacity="0.35" stroke-width="1" /><rect x="300.60" y="68.89" width="37.65" height="26.24" fill="#1e90ff" fill-opacity="0.07" stroke="#0b3d91" stroke-opacity="0.35" stroke-width="1" /><rect x="806.24" y="173.87" width="37.65" height="26.24" fill="#1e90ff" fill-opacity="0.07" stroke="#0b3d91" stroke-opacity="0.35" stroke-width="1" /><rect x="261.81" y="173.87" width="37.65" height="26.24" fill="#1e90ff" fill-opacity="0.07" stroke="#0b3d91" stroke-opacity="0.35" stroke-width="1" /><rect x="68.89" y="108.93" width="37.65" height="26.24" fill="#1e90ff" fill-opacity="0.07" stroke="#0b3d91" stroke-opacity="0.35" stroke-width="1" /><rect x="733.34" y="123.02" width="37.65" height="26.24" fill="#1e90ff" fill-opacity="0.07" stroke="#0b3d91" stroke-opacity="0.35" stroke-width="1" /><rect x="501.70" y="80.06" width="37.65" height="26.24" fill="#1e90ff" fill-opacity="0.07" stroke="#0b3d91" stroke-opacity="0.35" stroke-width="1" /><rect x="929.02" y="72.94" width="37.65" height="26.24" fill="#1e90ff" fill-opacity="0.07" stroke="#0b3d91" stroke-opacity="0.35" stroke-width="1" /><rect x="362.40" y="92.23" width="37.65" height="26.24" fill="#1e90ff" fill-opacity="0.07" stroke="#0b3d91" stroke-opacity="0.35" stroke-width="1" /><rect x="272.31" y="111.15" width="37.65" height="26.24" fill="#1e90ff" fill-opacity="0.07" stroke="#0b3d91" stroke-opacity="0.35" stroke-width="1" /></g>
<g id="anchors"><circle cx="670.76" cy="134.50" r="2.0" fill="#111827" fill-opacity="0.85" /><circle cx="670.76" cy="134.50" r="2.0" fill="#111827" fill-opacity="0.85" /><circle cx="670.76" cy="134.50" r="2.0" fill="#111827" fill-opacity="0.85" /><circle cx="670.76" cy="134.50" r="2.0" fill="#111827" fill-opacity="0.85" /><circle cx="670.76" cy="134.50" r="2.0" fill="#111827" fill-opacity="0.85" /><circle cx="670.76" cy="134.50" r="2.0" fill="#111827" fill-opacity="0.85" /><circle cx="670.76" cy="134.50" r="2.0" fill="#111827" fill-opacity="0.85" /><circle cx="670.76" cy="134.50" r="2.0" fill="#111827" fill-opacity="0.85" /><circle cx="670.76" cy="134.50" r="2.0" fill="#111827" fill-opacity="0.85" /><circle cx="670.76" cy="134.50" r="2.0" fill="#111827" fill-opacity="0.85" /></g>
<g id="labels"><text x="299.53" y="80.01" font-size="10" font-family="ui-monospace, SFMono-Regular, Menlo, Consolas, monospace" fill="#111827" fill-opacity="0.75">0</text><text x="321.42" y="80.01" font-size="10" font-family="ui-monospace, SFMono-Regular, Menlo, Consolas, monospace" fill="#111827" fill-opacity="0.75">1</text><text x="827.07" y="184.99" font-size="10" font-family="ui-monospace, SFMono-Regular, Menlo, Consolas, monospace" fill="#111827" fill-opacity="0.75">2</text><text x="282.64" y="184.99" font-size="10" font-family="ui-monospace, SFMono-Regular, Menlo, Consolas, monospace" fill="#111827" fill-opacity="0.75">3</text><text x="89.72" y="120.05" font-size="10" font-family="ui-monospace, SFMono-Regular, Menlo, Consolas, monospace" fill="#111827" fill-opacity="0.75">4</text><text x="754.17" y="134.14" font-size="10" font-family="ui-monospace, SFMono-Regular, Menlo, Consolas, monospace" fill="#111827" fill-opacity="0.75">5</text><text x="522.53" y="91.19" font-size="10" font-family="ui-monospace, SFMono-Regular, Menlo, Consolas, monospace" fill="#111827" fill-opacity="0.75">6</text><text x="949.84" y="84.06" font-size="10" font-family="ui-monospace, SFMono-Regular, Menlo, Consolas, monospace" fill="#111827" fill-opacity="0.75">7</text><text x="383.23" y="103.35" font-size="10" font-family="ui-monospace, SFMono-Regular, Menlo, Consolas, monospace" fill="#111827" fill-opacity="0.75">8</text><text x="293.14" y="122.27" font-size="10" font-family="ui-monospace, SFMono-Regular, Menlo, Consolas, monospace" fill="#111827" fill-opacity="0.75">9</text></g>
</svg>