<svg xmlns="http://www.w3.org/2000/svg" width="1200" height="222" viewBox="0 0 1200 222">
<rect x="0" y="0" width="100%" height="100%" fill="#fbfbfd" />
<text x="16" y="22" font-size="14" font-family="ui-monospace, SFMono-Regular, Menlo, Consolas, monospace" fill="#111827" fill-opacity="0.9">cluster  iter  iter=16000  n=10</text>
<g id="leaders"><line x1="494.78" y1="111.89" x2="175.61" y2="107.73" stroke="#6b7280" stroke-opacity="0.35" stroke-width="1" /><line x1="494.78" y1="111.89" x2="905.70" y2="76.99" stroke="#6b7280" stroke-opacity="0.35" stroke-width="1" /><line x1="494.78" y1="111.89" x2="337.88" y2="76.61" stroke="#6b7280" stroke-opacity="0.35" stroke-width="1" /><line x1="494.78" y1="111.89" x2="542.08" y2="94.57" stroke="#6b7280" stroke-opacity="0.35" stroke-width="1" /><line x1="494.78" y1="111.89" x2="307.18" y2="89.86" stroke="#6b7280" stroke-opacity="0.35" stroke-width="1" /><line x1="494.78" y1="111.89" x2="668.27" y2="80.39" stroke="#6b7280" stroke-opacity="0.35" stroke-width="1" /><line x1="494.78" y1="111.89" x2="142.62" y2="136.05" stroke="#6b7280" stroke-opacity="0.35" stroke-width="1" /><line x1="494.78" y1="111.89" x2="80.94" y2="126.24" stroke="#6b7280" stroke-opacity="0.35" stroke-width="1" /><line x1="494.78" y1="111.89" x2="230.21" y2="129.51" stroke="#6b7280" stroke-opacity="0.35" stroke-width="1" /><line x1="494.78" y1="111.89" x2="789.90" y2="145.39" stroke="#6b7280" stroke-opacity="0.35" stroke-width="1" /></g>
<g id="rects"><rect x="161.34" y="97.78" width="28.55" height="19.90" fill="#1e90ff" fill-opacity="0.07" stroke="#0b3d91" stroke-opacity="0.35" stroke-width="1" /><rect x="891.43" y="67.04" width="28.55" height="19.90" fill="#1e90ff" fill-opacity="0.07" stroke="#0b3d91" stroke-opacity="0.35" stroke-width="1" /><rect x="323.61" y="66.67" width="28.55" height="19.90" fill="#1e90ff" fill-opacity="0.07" stroke="#0b3d91" stroke-opacity="0.35" stroke-width="1" /><rect x="527.81" y="84.62" width="28.55" height="19.90" fill="#1e90ff" fill-opacity="0.07" stroke="#0b3d91" stroke-opacity="0.35" stroke-width="1" /><rect x="292.90" y="79.91" width="28.55" height="19.90" fill="#1e90ff" fill-opacity="0.07" stroke="#0b3d91" stroke-opacity="0.35" stroke-width="1" /><rect x="653.99" y="70.44" width="28.55" height="19.90" fill="#1e90ff" fill-opacity="0.07" stroke="#0b3d91" stroke-opacity="0.35" stroke-width="1" /><rect x="128.35" y="126.10" width="28.55" height="19.90" fill="#1e90ff" fill-opacity="0.07" stroke="#0b3d91" stroke-opacity="0.35" stroke-width="1" /><rect x="66.67" y="116.29" width="28.55" height="19.90" fill="#1e90ff" fill-opacity="0.07" stroke="#0b3d91" stroke-opacity="0.35" stroke-width="1" /><rect x="215.93" y="119.56" width="28.55" height="19.90" fill="#1e90ff" fill-opacity="0.07" stroke="#0b3d91" stroke-opacity="0.35" stroke-width="1" /><rect x="775.62" y="135.44" width="28.55" height="19.90" fill="#1e90ff" fill-opacity="0.07" stroke="#0b3d91" stroke-opacity="0.35" stroke-width="1" /></g>
<g id="anchors"><circle cx="494.78" cy="111.89" r="2.0" fill="#111827" fill-opacity="0.85" /><circle cx="494.78" cy="111.89" r="2.0" fill="#111827" fill-opacity="0.85" /><circle cx="494.78" cy="111.89" r="2.0" fill="#111827" fill-opacity="0.85" /><circle cx="494.78" cy="111.89" r="2.0" fill="#111827" fill-opacity="0.85" /><circle cx="494.78" cy="111.89" r="2.0" fill="#111827" fill-opacity="0.85" /><circle cx="494.78" cy="111.89" r="2.0" fill="#111827" fill-opacity="0.85" /><circle cx="494.78" cy="111.89" r="2.0" fill="#111827" fill-opacity="0.85" /><circle cx="494.78" cy="111.89" r="2.0" fill="#111827" fill-opacity="0.85" /><circle cx="494.78" cy="111.89" r="2.0" fill="#111827" fill-opacity="0.85" /><circle cx="494.78" cy="111.89" r="2.0" fill="#111827" fill-opacity="0.85" /></g>
<g id="labels"><text x="177.61" y="105.73" font-size="10" font-family="ui-monospace, SFMono-Regular, Menlo, Consolas, monospace" fill="#111827" fill-opacity="0.75">0</text><text x="907.70" y="74.99" font-size="10" font-family="ui-monospace, SFMono-Regular, Menlo, Consolas, monospace" fill="#111827" fill-opacity="0.75">1</text><text x="339.88" y="74.61" font-size="10" font-family="ui-monospace, SFMono-Regular, Menlo, Consolas, monospace" fill="#111827" fill-opacity="0.75">2</text><text x="544.08" y="92.57" font-size="10" font-family="ui-monospace, SFMono-Regular, Menlo, Consolas, monospace" fill="#111827" fill-opacity="0.75">3</text><text x="309.18" y="87.86" font-size="10" font-family="ui-monospace, SFMono-Regular, Menlo, Consolas, monospace" fill="#111827" fill-opacity="0.75">4</text><text x="670.27" y="78.39" font-size="10" font-family="ui-monospace, SFMono-Regular, Menlo, Consolas, monospace" fill="#111827" fill-opacity="0.75">5</text><text x="144.62" y="134.05" font-size="10" font-family="ui-monospace, SFMono-Regular, Menlo, Consolas, monospace" fill="#111827" fill-opacity="0.75">6</text><text x="82.94" y="124.24" font-size="10" font-family="ui-monospace, SFMono-Regular, Menlo, Consolas, monospace" fill="#111827" fill-opacity="0.75">7</text><text x="232.21" y="127.51" font-size="10" font-family="ui-monospace, SFMono-Regular, Menlo, Consolas, monospace" fill="#111827" fill-opacity="0.75">8</text><text x="791.90" y="143.39" font-size="10" font-family="ui-monospace, SFMono-Regular, Menlo, Consolas, monospace" fill="#111827" fill-opacity="0.75">9</text></g>
</svg>