<svg xmlns="http://www.w3.org/2000/svg" width="1200" height="222" viewBox="0 0 1200 222">
<rect x="0" y="0" width="100%" height="100%" fill="#fbfbfd" />
<text x="16" y="22" font-size="14" font-family="ui-monospace, SFMono-Regular, Menlo, Consolas, monospace" fill="#111827" fill-opacity="0.9">cluster  iter  iter=19000  n=10</text>
<g id="leaders"><line x1="494.79" y1="111.95" x2="306.89" y2="90.06" stroke="#6b7280" stroke-opacity="0.35" stroke-width="1" /><line x1="494.79" y1="111.95" x2="230.13" y2="129.48" stroke="#6b7280" stroke-opacity="0.35" stroke-width="1" /><line x1="494.79" y1="111.95" x2="789.92" y2="145.39" stroke="#6b7280" stroke-opacity="0.35" stroke-width="1" /><line x1="494.79" y1="111.95" x2="542.04" y2="94.49" stroke="#6b7280" stroke-opacity="0.35" stroke-width="1" /><line x1="494.79" y1="111.95" x2="668.49" y2="80.63" stroke="#6b7280" stroke-opacity="0.35" stroke-width="1" /><line x1="494.79" y1="111.95" x2="80.94" y2="126.29" stroke="#6b7280" stroke-opacity="0.35" stroke-width="1" /><line x1="494.79" y1="111.95" x2="905.57" y2="77.10" stroke="#6b7280" stroke-opacity="0.35" stroke-width="1" /><line x1="494.79" y1="111.95" x2="175.63" y2="108.01" stroke="#6b7280" stroke-opacity="0.35" stroke-width="1" /><line x1="494.79" y1="111.95" x2="337.73" y2="76.61" stroke="#6b7280" stroke-opacity="0.35" stroke-width="1" /><line x1="494.79" y1="111.95" x2="142.55" y2="136.11" stroke="#6b7280" stroke-opacity="0.35" stroke-width="1" /></g>
<g id="rects"><rect x="292.62" y="80.11" width="28.55" height="19.90" fill="#1e90ff" fill-opacity="0.07" stroke="#0b3d91" stroke-opacity="0.35" stroke-width="1" /><rect x="215.85" y="119.52" width="28.55" height="19.90" fill="#1e90ff" fill-opacity="0.07" stroke="#0b3d91" stroke-opacity="0.35" stroke-width="1" /><rect x="775.64" y="135.44" width="28.55" height="19.90" fill="#1e90ff" fill-opacity="0.07" stroke="#0b3d91" stroke-opacity="0.35" stroke-width="1" /><rect x="527.76" y="84.54" width="28.55" height="19.90" fill="#1e90ff" fill-opacity="0.07" stroke="#0b3d91" stroke-opacity="0.35" stroke-width="1" /><rect x="654.22" y="70.68" width="28.55" height="19.90" fill="#1e90ff" fill-opacity="0.07" stroke="#0b3d91" stroke-opacity="0.35" stroke-width="1" /><rect x="66.66" y="116.34" width="28.55" height="19.90" fill="#1e90ff" fill-opacity="0.07" stroke="#0b3d91" stroke-opacity="0.35" stroke-width="1" /><rect x="891.29" y="67.15" width="28.55" height="19.90" fill="#1e90ff" fill-opacity="0.07" stroke="#0b3d91" stroke-opacity="0.35" stroke-width="1" /><rect x="161.35" y="98.06" width="28.55" height="19.90" fill="#1e90ff" fill-opacity="0.07" stroke="#0b3d91" stroke-opacity="0.35" stroke-width="1" /><rect x="323.45" y="66.66" width="28.55" height="19.90" fill="#1e90ff" fill-opacity="0.07" stroke="#0b3d91" stroke-opacity="0.35" stroke-width="1" /><rect x="128.27" y="126.16" width="28.55" height="19.90" fill="#1e90ff" fill-opacity="0.07" stroke="#0b3d91" stroke-opacity="0.35" stroke-width="1" /></g>
<g id="anchors"><circle cx="494.79" cy="111.95" r="2.0" fill="#111827" fill-opacity="0.85" /><circle cx="494.79" cy="111.95" r="2.0" fill="#111827" fill-opacity="0.85" /><circle cx="494.79" cy="111.95" r="2.0" fill="#111827" fill-opacity="0.85" /><circle cx="494.79" cy="111.95" r="2.0" fill="#111827" fill-opacity="0.85" /><circle cx="494.79" cy="111.95" r="2.0" fill="#111827" fill-opacity="0.85" /><circle cx="494.79" cy="111.95" r="2.0" fill="#111827" fill-opacity="0.85" /><circle cx="494.79" cy="111.95" r="2.0" fill="#111827" fill-opacity="0.85" /><circle cx="494.79" cy="111.95" r="2.0" fill="#111827" fill-opacity="0.85" /><circle cx="494.79" cy="111.95" r="2.0" fill="#111827" fill-opacity="0.85" /><circle cx="494.79" cy="111.95" r="2.0" fill="#111827" fill-opacity="0.85" /></g>
<g id="labels"><text x="308.89" y="88.06" font-size="10" font-family="ui-monospace, SFMono-Regular, Menlo, Consolas, monospace" fill="#111827" fill-opacity="0.75">0</text><text x="232.13" y="127.48" font-size="10" font-family="ui-monospace, SFMono-Regular, Menlo, Consolas, monospace" fill="#111827" fill-opacity="0.75">1</text><text x="791.92" y="143.39" font-size="10" font-family="ui-monospace, SFMono-Regular, Menlo, Consolas, monospace" fill="#111827" fill-opacity="0.75">2</text><text x="544.04" y="92.49" font-size="10" font-family="ui-monospace, SFMono-Regular, Menlo, Consolas, monospace" fill="#111827" fill-opacity="0.75">3</text><text x="670.49" y="78.63" font-size="10" font-family="ui-monospace, SFMono-Regular, Menlo, Consolas, monospace" fill="#111827" fill-opacity="0.75">4</text><text x="82.94" y="124.29" font-size="10" font-family="ui-monospace, SFMono-Regular, Menlo, Consolas, monospace" fill="#111827" fill-opacity="0.75">5</text><text x="907.57" y="75.10" font-size="10" font-family="ui-monospace, SFMono-Regular, Menlo, Consolas, monospace" fill="#111827" fill-opacity="0.75">6</text><text x="177.63" y="106.01" font-size="10" font-family="ui-monospace, SFMono-Regular, Menlo, Consolas, monospace" fill="#111827" fill-opacity="0.75">7</text><text x="339.73" y="74.61" font-size="10" font-family="ui-monospace, SFMono-Regular, Menlo, Consolas, monospace" fill="#111827" fill-opacity="0.75">8</text><text x="144.55" y="134.11" font-size="10" font-family="ui-monospace, SFMono-Regular, Menlo, Consolas, monospace" fill="#111827" fill-opacity="0.75">9</text></g>
</svg>