<svg xmlns="http://www.w3.org/2000/svg" width="1200" height="222" viewBox="0 0 1200 222">
<rect x="0" y="0" width="100%" height="100%" fill="#fbfbfd" />
<text x="16" y="22" font-size="14" font-family="ui-monospace, SFMono-Regular, Menlo, Consolas, monospace" fill="#111827" fill-opacity="0.9">cluster  iter  iter=17000  n=10</text>
<g id="leaders"><line x1="495.11" y1="111.94" x2="906.10" y2="76.97" stroke="#6b7280" stroke-opacity="0.35" stroke-width="1" /><line x1="495.11" y1="111.94" x2="175.66" y2="107.94" stroke="#6b7280" stroke-opacity="0.35" stroke-width="1" /><line x1="495.11" y1="111.94" x2="80.97" y2="126.32" stroke="#6b7280" stroke-opacity="0.35" stroke-width="1" /><line x1="495.11" y1="111.94" x2="230.33" y2="129.50" stroke="#6b7280" stroke-opacity="0.35" stroke-width="1" /><line x1="495.11" y1="111.94" x2="668.89" y2="80.51" stroke="#6b7280" stroke-opacity="0.35" stroke-width="1" /><line x1="495.11" y1="111.94" x2="790.41" y2="145.36" stroke="#6b7280" stroke-opacity="0.35" stroke-width="1" /><line x1="495.11" y1="111.94" x2="142.73" y2="136.10" stroke="#6b7280" stroke-opacity="0.35" stroke-width="1" /><line x1="495.11" y1="111.94" x2="307.32" y2="89.95" stroke="#6b7280" stroke-opacity="0.35" stroke-width="1" /><line x1="495.11" y1="111.94" x2="337.99" y2="76.64" stroke="#6b7280" stroke-opacity="0.35" stroke-width="1" /><line x1="495.11" y1="111.94" x2="542.37" y2="94.63" stroke="#6b7280" stroke-opacity="0.35" stroke-width="1" /></g>
<g id="rects"><rect x="891.82" y="67.02" width="28.57" height="19.91" fill="#1e90ff" fill-opacity="0.07" stroke="#0b3d91" stroke-opacity="0.35" stroke-width="1" /><rect x="161.38" y="97.99" width="28.57" height="19.91" fill="#1e90ff" fill-opacity="0.07" stroke="#0b3d91" stroke-opacity="0.35" stroke-width="1" /><rect x="66.68" y="116.36" width="28.57" height="19.91" fill="#1e90ff" fill-opacity="0.07" stroke="#0b3d91" stroke-opacity="0.35" stroke-width="1" /><rect x="216.04" y="119.54" width="28.57" height="19.91" fill="#1e90ff" fill-opacity="0.07" stroke="#0b3d91" stroke-opacity="0.35" stroke-width="1" /><rect x="654.61" y="70.55" width="28.57" height="19.91" fill="#1e90ff" fill-opacity="0.07" stroke="#0b3d91" stroke-opacity="0.35" stroke-width="1" /><rect x="776.13" y="135.40" width="28.57" height="19.91" fill="#1e90ff" fill-opacity="0.07" stroke="#0b3d91" stroke-opacity="0.35" stroke-width="1" /><rect x="128.45" y="126.14" width="28.57" height="19.91" fill="#1e90ff" fill-opacity="0.07" stroke="#0b3d91" stroke-opacity="0.35" stroke-width="1" /><rect x="293.04" y="80.00" width="28.57" height="19.91" fill="#1e90ff" fill-opacity="0.07" stroke="#0b3d91" stroke-opacity="0.35" stroke-width="1" /><rect x="323.71" y="66.68" width="28.57" height="19.91" fill="#1e90ff" fill-opacity="0.07" stroke="#0b3d91" stroke-opacity="0.35" stroke-width="1" /><rect x="528.09" y="84.68" width="28.57" height="19.91" fill="#1e90ff" fill-opacity="0.07" stroke="#0b3d91" stroke-opacity="0.35" stroke-width="1" /></g>
<g id="anchors"><circle cx="495.11" cy="111.94" r="2.0" fill="#111827" fill-opacity="0.85" /><circle cx="495.11" cy="111.94" r="2.0" fill="#111827" fill-opacity="0.85" /><circle cx="495.11" cy="111.94" r="2.0" fill="#111827" fill-opacity="0.85" /><circle cx="495.11" cy="111.94" r="2.0" fill="#111827" fill-opacity="0.85" /><circle cx="495.11" cy="111.94" r="2.0" fill="#111827" fill-opacity="0.85" /><circle cx="495.11" cy="111.94" r="2.0" fill="#111827" fill-opacity="0.85" /><circle cx="495.11" cy="111.94" r="2.0" fill="#111827" fill-opacity="0.85" /><circle cx="495.11" cy="111.94" r="2.0" fill="#111827" fill-opacity="0.85" /><circle cx="495.11" cy="111.94" r="2.0" fill="#111827" fill-opacity="0.85" /><circle cx="495.11" cy="111.94" r="2.0" fill="#111827" fill-opacity="0.85" /></g>
<g id="labels"><text x="908.10" y="74.97" font-size="10" font-family="ui-monospace, SFMono-Regular, Menlo, Consolas, monospace" fill="#111827" fill-opacity="0.75">0</text><text x="177.66" y="105.94" font-size="10" font-family="ui-monospace, SFMono-Regular, Menlo, Consolas, monospace" fill="#111827" fill-opacity="0.75">1</text><text x="82.97" y="124.32" font-size="10" font-family="ui-monospace, SFMono-Regular, Menlo, Consolas, monospace" fill="#111827" fill-opacity="0.75">2</text><text x="232.33" y="127.50" font-size="10" font-family="ui-monospace, SFMono-Regular, Menlo, Consolas, monospace" fill="#111827" fill-opacity="0.75">3</text><text x="670.89" y="78.51" font-size="10" font-family="ui-monospace, SFMono-Regular, Menlo, Consolas, monospace" fill="#111827" fill-opacity="0.75">4</text><text x="792.41" y="143.36" font-size="10" font-family="ui-monospace, SFMono-Regular, Menlo, Consolas, monospace" fill="#111827" fill-opacity="0.75">5</text><text x="144.73" y="134.10" font-size="10" font-family="ui-monospace, SFMono-Regular, Menlo, Consolas, monospace" fill="#111827" fill-opacity="0.75">6</text><text x="309.32" y="87.95" font-size="10" font-family="ui-monospace, SFMono-Regular, Menlo, Consolas, monospace" fill="#111827" fill-opacity="0.75">7</text><text x="339.99" y="74.64" font-size="10" font-family="ui-monospace, SFMono-Regular, Menlo, Consolas, monospace" fill="#111827" fill-opacity="0.75">8</text><text x="544.37" y="92.63" font-size="10" font-family="ui-monospace, SFMono-Regular, Menlo, Consolas, monospace" fill="#111827" fill-opacity="0.75">9</text></g>
</svg>