<svg xmlns="http://www.w3.org/2000/svg" width="1200" height="223" viewBox="0 0 1200 223">
<rect x="0" y="0" width="100%" height="100%" fill="#fbfbfd" />
<text x="16" y="22" font-size="14" font-family="ui-monospace, SFMono-Regular, Menlo, Consolas, monospace" fill="#111827" fill-opacity="0.9">cluster  iter  iter=14000  n=10</text>
<g id="leaders"><line x1="496.36" y1="112.09" x2="176.26" y2="107.25" stroke="#6b7280" stroke-opacity="0.35" stroke-width="1" /><line x1="496.36" y1="112.09" x2="81.13" y2="126.57" stroke="#6b7280" stroke-opacity="0.35" stroke-width="1" /><line x1="496.36" y1="112.09" x2="142.43" y2="136.18" stroke="#6b7280" stroke-opacity="0.35" stroke-width="1" /><line x1="496.36" y1="112.09" x2="308.29" y2="90.28" stroke="#6b7280" stroke-opacity="0.35" stroke-width="1" /><line x1="496.36" y1="112.09" x2="230.84" y2="129.22" stroke="#6b7280" stroke-opacity="0.35" stroke-width="1" /><line x1="496.36" y1="112.09" x2="792.92" y2="146.21" stroke="#6b7280" stroke-opacity="0.35" stroke-width="1" /><line x1="496.36" y1="112.09" x2="339.11" y2="76.79" stroke="#6b7280" stroke-opacity="0.35" stroke-width="1" /><line x1="496.36" y1="112.09" x2="908.42" y2="77.40" stroke="#6b7280" stroke-opacity="0.35" stroke-width="1" /><line x1="496.36" y1="112.09" x2="670.57" y2="80.53" stroke="#6b7280" stroke-opacity="0.35" stroke-width="1" /><line x1="496.36" y1="112.09" x2="543.63" y2="95.09" stroke="#6b7280" stroke-opacity="0.35" stroke-width="1" /></g>
<g id="rects"><rect x="161.93" y="97.26" width="28.66" height="19.97" fill="#1e90ff" fill-opacity="0.07" stroke="#0b3d91" stroke-opacity="0.35" stroke-width="1" /><rect x="66.80" y="116.59" width="28.66" height="19.97" fill="#1e90ff" fill-opacity="0.07" stroke="#0b3d91" stroke-opacity="0.35" stroke-width="1" /><rect x="128.10" y="126.19" width="28.66" height="19.97" fill="#1e90ff" fill-opacity="0.07" stroke="#0b3d91" stroke-opacity="0.35" stroke-width="1" /><rect x="293.96" y="80.29" width="28.66" height="19.97" fill="#1e90ff" fill-opacity="0.07" stroke="#0b3d91" stroke-opacity="0.35" stroke-width="1" /><rect x="216.51" y="119.23" width="28.66" height="19.97" fill="#1e90ff" fill-opacity="0.07" stroke="#0b3d91" stroke-opacity="0.35" stroke-width="1" /><rect x="778.59" y="136.23" width="28.66" height="19.97" fill="#1e90ff" fill-opacity="0.07" stroke="#0b3d91" stroke-opacity="0.35" stroke-width="1" /><rect x="324.78" y="66.80" width="28.66" height="19.97" fill="#1e90ff" fill-opacity="0.07" stroke="#0b3d91" stroke-opacity="0.35" stroke-width="1" /><rect x="894.09" y="67.42" width="28.66" height="19.97" fill="#1e90ff" fill-opacity="0.07" stroke="#0b3d91" stroke-opacity="0.35" stroke-width="1" /><rect x="656.24" y="70.54" width="28.66" height="19.97" fill="#1e90ff" fill-opacity="0.07" stroke="#0b3d91" stroke-opacity="0.35" stroke-width="1" /><rect x="529.30" y="85.10" width="28.66" height="19.97" fill="#1e90ff" fill-opacity="0.07" stroke="#0b3d91" stroke-opacity="0.35" stroke-width="1" /></g>
<g id="anchors"><circle cx="496.36" cy="112.09" r="2.0" fill="#111827" fill-opacity="0.85" /><circle cx="496.36" cy="112.09" r="2.0" fill="#111827" fill-opacity="0.85" /><circle cx="496.36" cy="112.09" r="2.0" fill="#111827" fill-opacity="0.85" /><circle cx="496.36" cy="112.09" r="2.0" fill="#111827" fill-opacity="0.85" /><circle cx="496.36" cy="112.09" r="2.0" fill="#111827" fill-opacity="0.85" /><circle cx="496.36" cy="112.09" r="2.0" fill="#111827" fill-opacity="0.85" /><circle cx="496.36" cy="112.09" r="2.0" fill="#111827" fill-opacity="0.85" /><circle cx="496.36" cy="112.09" r="2.0" fill="#111827" fill-opacity="0.85" /><circle cx="496.36" cy="112.09" r="2.0" fill="#111827" fill-opacity="0.85" /><circle cx="496.36" cy="112.09" r="2.0" fill="#111827" fill-opacity="0.85" /></g>
<g id="labels"><text x="178.26" y="105.25" font-size="10" font-family="ui-monospace, SFMono-Regular, Menlo, Consolas, monospace" fill="#111827" fill-opacity="0.75">0</text><text x="83.13" y="124.57" font-size="10" font-family="ui-monospace, SFMono-Regular, Menlo, Consolas, monospace" fill="#111827" fill-opacity="0.75">1</text><text x="144.43" y="134.18" font-size="10" font-family="ui-monospace, SFMono-Regular, Menlo, Consolas, monospace" fill="#111827" fill-opacity="0.75">2</text><text x="310.29" y="88.28" font-size="10" font-family="ui-monospace, SFMono-Regular, Menlo, Consolas, monospace" fill="#111827" fill-opacity="0.75">3</text><text x="232.84" y="127.22" font-size="10" font-family="ui-monospace, SFMono-Regular, Menlo, Consolas, monospace" fill="#111827" fill-opacity="0.75">4</text><text x="794.92" y="144.21" font-size="10" font-family="ui-monospace, SFMono-Regular, Menlo, Consolas, monospace" fill="#111827" fill-opacity="0.75">5</text><text x="341.11" y="74.79" font-size="10" font-family="ui-monospace, SFMono-Regular, Menlo, Consolas, monospace" fill="#111827" fill-opacity="0.75">6</text><text x="910.42" y="75.40" font-size="10" font-family="ui-monospace, SFMono-Regular, Menlo, Consolas, monospace" fill="#111827" fill-opacity="0.75">7</text><text x="672.57" y="78.53" font-size="10" font-family="ui-monospace, SFMono-Regular, Menlo, Consolas, monospace" fill="#111827" fill-opacity="0.75">8</text><text x="545.63" y="93.09" font-size="10" font-family="ui-monospace, SFMono-Regular, Menlo, Consolas, monospace" fill="#111827" fill-opacity="0.75">9</text></g>
</svg>