<svg xmlns="http://www.w3.org/2000/svg" width="1200" height="223" viewBox="0 0 1200 223">
<rect x="0" y="0" width="100%" height="100%" fill="#fbfbfd" />
<text x="16" y="22" font-size="14" font-family="ui-monospace, SFMono-Regular, Menlo, Consolas, monospace" fill="#111827" fill-opacity="0.9">cluster  iter  iter=23000  n=10</text>
<g id="leaders"><line x1="497.42" y1="112.45" x2="339.48" y2="76.91" stroke="#6b7280" stroke-opacity="0.35" stroke-width="1" /><line x1="497.42" y1="112.45" x2="176.47" y2="108.51" stroke="#6b7280" stroke-opacity="0.35" stroke-width="1" /><line x1="497.42" y1="112.45" x2="544.90" y2="94.90" stroke="#6b7280" stroke-opacity="0.35" stroke-width="1" /><line x1="497.42" y1="112.45" x2="81.26" y2="126.86" stroke="#6b7280" stroke-opacity="0.35" stroke-width="1" /><line x1="497.42" y1="112.45" x2="231.25" y2="130.08" stroke="#6b7280" stroke-opacity="0.35" stroke-width="1" /><line x1="497.42" y1="112.45" x2="794.19" y2="146.09" stroke="#6b7280" stroke-opacity="0.35" stroke-width="1" /><line x1="497.42" y1="112.45" x2="308.47" y2="90.41" stroke="#6b7280" stroke-opacity="0.35" stroke-width="1" /><line x1="497.42" y1="112.45" x2="672.10" y2="81.00" stroke="#6b7280" stroke-opacity="0.35" stroke-width="1" /><line x1="497.42" y1="112.45" x2="910.52" y2="77.42" stroke="#6b7280" stroke-opacity="0.35" stroke-width="1" /><line x1="497.42" y1="112.45" x2="143.23" y2="136.71" stroke="#6b7280" stroke-opacity="0.35" stroke-width="1" /></g>
<g id="rects"><rect x="325.13" y="66.90" width="28.71" height="20.01" fill="#1e90ff" fill-opacity="0.07" stroke="#0b3d91" stroke-opacity="0.35" stroke-width="1" /><rect x="162.12" y="98.51" width="28.71" height="20.01" fill="#1e90ff" fill-opacity="0.07" stroke="#0b3d91" stroke-opacity="0.35" stroke-width="1" /><rect x="530.54" y="84.89" width="28.71" height="20.01" fill="#1e90ff" fill-opacity="0.07" stroke="#0b3d91" stroke-opacity="0.35" stroke-width="1" /><rect x="66.90" y="116.85" width="28.71" height="20.01" fill="#1e90ff" fill-opacity="0.07" stroke="#0b3d91" stroke-opacity="0.35" stroke-width="1" /><rect x="216.90" y="120.07" width="28.71" height="20.01" fill="#1e90ff" fill-opacity="0.07" stroke="#0b3d91" stroke-opacity="0.35" stroke-width="1" /><rect x="779.83" y="136.09" width="28.71" height="20.01" fill="#1e90ff" fill-opacity="0.07" stroke="#0b3d91" stroke-opacity="0.35" stroke-width="1" /><rect x="294.12" y="80.40" width="28.71" height="20.01" fill="#1e90ff" fill-opacity="0.07" stroke="#0b3d91" stroke-opacity="0.35" stroke-width="1" /><rect x="657.74" y="70.99" width="28.71" height="20.01" fill="#1e90ff" fill-opacity="0.07" stroke="#0b3d91" stroke-opacity="0.35" stroke-width="1" /><rect x="896.17" y="67.41" width="28.71" height="20.01" fill="#1e90ff" fill-opacity="0.07" stroke="#0b3d91" stroke-opacity="0.35" stroke-width="1" /><rect x="128.87" y="126.70" width="28.71" height="20.01" fill="#1e90ff" fill-opacity="0.07" stroke="#0b3d91" stroke-opacity="0.35" stroke-width="1" /></g>
<g id="anchors"><circle cx="497.42" cy="112.45" r="2.0" fill="#111827" fill-opacity="0.85" /><circle cx="497.42" cy="112.45" r="2.0" fill="#111827" fill-opacity="0.85" /><circle cx="497.42" cy="112.45" r="2.0" fill="#111827" fill-opacity="0.85" /><circle cx="497.42" cy="112.45" r="2.0" fill="#111827" fill-opacity="0.85" /><circle cx="497.42" cy="112.45" r="2.0" fill="#111827" fill-opacity="0.85" /><circle cx="497.42" cy="112.45" r="2.0" fill="#111827" fill-opacity="0.85" /><circle cx="497.42" cy="112.45" r="2.0" fill="#111827" fill-opacity="0.85" /><circle cx="497.42" cy="112.45" r="2.0" fill="#111827" fill-opacity="0.85" /><circle cx="497.42" cy="112.45" r="2.0" fill="#111827" fill-opacity="0.85" /><circle cx="497.42" cy="112.45" r="2.0" fill="#111827" fill-opacity="0.85" /></g>
<g id="labels"><text x="341.48" y="74.91" font-size="10" font-family="ui-monospace, SFMono-Regular, Menlo, Consolas, monospace" fill="#111827" fill-opacity="0.75">0</text><text x="178.47" y="106.51" font-size="10" font-family="ui-monospace, SFMono-Regular, Menlo, Consolas, monospace" fill="#111827" fill-opacity="0.75">1</text><text x="546.90" y="92.90" font-size="10" font-family="ui-monospace, SFMono-Regular, Menlo, Consolas, monospace" fill="#111827" fill-opacity="0.75">2</text><text x="83.26" y="124.86" font-size="10" font-family="ui-monospace, SFMono-Regular, Menlo, Consolas, monospace" fill="#111827" fill-opacity="0.75">3</text><text x="233.25" y="128.08" font-size="10" font-family="ui-monospace, SFMono-Regular, Menlo, Consolas, monospace" fill="#111827" fill-opacity="0.75">4</text><text x="796.19" y="144.09" font-size="10" font-family="ui-monospace, SFMono-Regular, Menlo, Consolas, monospace" fill="#111827" fill-opacity="0.75">5</text><text x="310.47" y="88.41" font-size="10" font-family="ui-monospace, SFMono-Regular, Menlo, Consolas, monospace" fill="#111827" fill-opacity="0.75">6</text><text x="674.10" y="79.00" font-size="10" font-family="ui-monospace, SFMono-Regular, Menlo, Consolas, monospace" fill="#111827" fill-opacity="0.75">7</text><text x="912.52" y="75.42" font-size="10" font-family="ui-monospace, SFMono-Regular, Menlo, Consolas, monospace" fill="#111827" fill-opacity="0.75">8</text><text x="145.23" y="134.71" font-size="10" font-family="ui-monospace, SFMono-Regular, Menlo, Consolas, monospace" fill="#111827" fill-opacity="0.75">9</text></g>
</svg>