<svg xmlns="http://www.w3.org/2000/svg" width="1200" height="222" viewBox="0 0 1200 222">
<rect x="0" y="0" width="100%" height="100%" fill="#fbfbfd" />
<text x="16" y="22" font-size="14" font-family="ui-monospace, SFMono-Regular, Menlo, Consolas, monospace" fill="#111827" fill-opacity="0.9">cluster  iter  iter=21000  n=10</text>
<g id="leaders"><line x1="494.76" y1="111.94" x2="230.09" y2="129.46" stroke="#6b7280" stroke-opacity="0.35" stroke-width="1" /><line x1="494.76" y1="111.94" x2="905.55" y2="77.11" stroke="#6b7280" stroke-opacity="0.35" stroke-width="1" /><line x1="494.76" y1="111.94" x2="668.46" y2="80.66" stroke="#6b7280" stroke-opacity="0.35" stroke-width="1" /><line x1="494.76" y1="111.94" x2="80.93" y2="126.29" stroke="#6b7280" stroke-opacity="0.35" stroke-width="1" /><line x1="494.76" y1="111.94" x2="789.86" y2="145.39" stroke="#6b7280" stroke-opacity="0.35" stroke-width="1" /><line x1="494.76" y1="111.94" x2="541.99" y2="94.50" stroke="#6b7280" stroke-opacity="0.35" stroke-width="1" /><line x1="494.76" y1="111.94" x2="337.68" y2="76.61" stroke="#6b7280" stroke-opacity="0.35" stroke-width="1" /><line x1="494.76" y1="111.94" x2="142.54" y2="136.07" stroke="#6b7280" stroke-opacity="0.35" stroke-width="1" /><line x1="494.76" y1="111.94" x2="175.60" y2="108.01" stroke="#6b7280" stroke-opacity="0.35" stroke-width="1" /><line x1="494.76" y1="111.94" x2="306.87" y2="90.04" stroke="#6b7280" stroke-opacity="0.35" stroke-width="1" /></g>
<g id="rects"><rect x="215.82" y="119.51" width="28.55" height="19.90" fill="#1e90ff" fill-opacity="0.07" stroke="#0b3d91" stroke-opacity="0.35" stroke-width="1" /><rect x="891.27" y="67.16" width="28.55" height="19.90" fill="#1e90ff" fill-opacity="0.07" stroke="#0b3d91" stroke-opacity="0.35" stroke-width="1" /><rect x="654.19" y="70.71" width="28.55" height="19.90" fill="#1e90ff" fill-opacity="0.07" stroke="#0b3d91" stroke-opacity="0.35" stroke-width="1" /><rect x="66.66" y="116.34" width="28.55" height="19.90" fill="#1e90ff" fill-opacity="0.07" stroke="#0b3d91" stroke-opacity="0.35" stroke-width="1" /><rect x="775.58" y="135.44" width="28.55" height="19.90" fill="#1e90ff" fill-opacity="0.07" stroke="#0b3d91" stroke-opacity="0.35" stroke-width="1" /><rect x="527.71" y="84.55" width="28.55" height="19.90" fill="#1e90ff" fill-opacity="0.07" stroke="#0b3d91" stroke-opacity="0.35" stroke-width="1" /><rect x="323.41" y="66.66" width="28.55" height="19.90" fill="#1e90ff" fill-opacity="0.07" stroke="#0b3d91" stroke-opacity="0.35" stroke-width="1" /><rect x="128.26" y="126.12" width="28.55" height="19.90" fill="#1e90ff" fill-opacity="0.07" stroke="#0b3d91" stroke-opacity="0.35" stroke-width="1" /><rect x="161.32" y="98.06" width="28.55" height="19.90" fill="#1e90ff" fill-opacity="0.07" stroke="#0b3d91" stroke-opacity="0.35" stroke-width="1" /><rect x="292.59" y="80.09" width="28.55" height="19.90" fill="#1e90ff" fill-opacity="0.07" stroke="#0b3d91" stroke-opacity="0.35" stroke-width="1" /></g>
<g id="anchors"><circle cx="494.76" cy="111.94" r="2.0" fill="#111827" fill-opacity="0.85" /><circle cx="494.76" cy="111.94" r="2.0" fill="#111827" fill-opacity="0.85" /><circle cx="494.76" cy="111.94" r="2.0" fill="#111827" fill-opacity="0.85" /><circle cx="494.76" cy="111.94" r="2.0" fill="#111827" fill-opacity="0.85" /><circle cx="494.76" cy="111.94" r="2.0" fill="#111827" fill-opacity="0.85" /><circle cx="494.76" cy="111.94" r="2.0" fill="#111827" fill-opacity="0.85" /><circle cx="494.76" cy="111.94" r="2.0" fill="#111827" fill-opacity="0.85" /><circle cx="494.76" cy="111.94" r="2.0" fill="#111827" fill-opacity="0.85" /><circle cx="494.76" cy="111.94" r="2.0" fill="#111827" fill-opacity="0.85" /><circle cx="494.76" cy="111.94" r="2.0" fill="#111827" fill-opacity="0.85" /></g>
<g id="labels"><text x="232.09" y="127.46" font-size="10" font-family="ui-monospace, SFMono-Regular, Menlo, Consolas, monospace" fill="#111827" fill-opacity="0.75">0</text><text x="907.55" y="75.11" font-size="10" font-family="ui-monospace, SFMono-Regular, Menlo, Consolas, monospace" fill="#111827" fill-opacity="0.75">1</text><text x="670.46" y="78.66" font-size="10" font-family="ui-monospace, SFMono-Regular, Menlo, Consolas, monospace" fill="#111827" fill-opacity="0.75">2</text><text x="82.93" y="124.29" font-size="10" font-family="ui-monospace, SFMono-Regular, Menlo, Consolas, monospace" fill="#111827" fill-opacity="0.75">3</text><text x="791.86" y="143.39" font-size="10" font-family="ui-monospace, SFMono-Regular, Menlo, Consolas, monospace" fill="#111827" fill-opacity="0.75">4</text><text x="543.99" y="92.50" font-size="10" font-family="ui-monospace, SFMono-Regular, Menlo, Consolas, monospace" fill="#111827" fill-opacity="0.75">5</text><text x="339.68" y="74.61" font-size="10" font-family="ui-monospace, SFMono-Regular, Menlo, Consolas, monospace" fill="#111827" fill-opacity="0.75">6</text><text x="144.54" y="134.07" font-size="10" font-family="ui-monospace, SFMono-Regular, Menlo, Consolas, monospace" fill="#111827" fill-opacity="0.75">7</text><text x="177.60" y="106.01" font-size="10" font-family="ui-monospace, SFMono-Regular, Menlo, Consolas, monospace" fill="#111827" fill-opacity="0.75">8</text><text x="308.87" y="88.04" font-size="10" font-family="ui-monospace, SFMono-Regular, Menlo, Consolas, monospace" fill="#111827" fill-opacity="0.75">9</text></g>
</svg>