<svg xmlns="http://www.w3.org/2000/svg" width="1200" height="223" viewBox="0 0 1200 223">
<rect x="0" y="0" width="100%" height="100%" fill="#fbfbfd" />
<text x="16" y="22" font-size="14" font-family="ui-monospace, SFMono-Regular, Menlo, Consolas, monospace" fill="#111827" fill-opacity="0.9">cluster  iter  iter=15000  n=10</text>
<g id="leaders"><line x1="497.42" y1="112.41" x2="143.09" y2="136.75" stroke="#6b7280" stroke-opacity="0.35" stroke-width="1" /><line x1="497.42" y1="112.41" x2="672.12" y2="80.82" stroke="#6b7280" stroke-opacity="0.35" stroke-width="1" /><line x1="497.42" y1="112.41" x2="910.47" y2="77.34" stroke="#6b7280" stroke-opacity="0.35" stroke-width="1" /><line x1="497.42" y1="112.41" x2="231.25" y2="130.33" stroke="#6b7280" stroke-opacity="0.35" stroke-width="1" /><line x1="497.42" y1="112.41" x2="308.90" y2="90.30" stroke="#6b7280" stroke-opacity="0.35" stroke-width="1" /><line x1="497.42" y1="112.41" x2="176.39" y2="108.20" stroke="#6b7280" stroke-opacity="0.35" stroke-width="1" /><line x1="497.42" y1="112.41" x2="794.49" y2="146.10" stroke="#6b7280" stroke-opacity="0.35" stroke-width="1" /><line x1="497.42" y1="112.41" x2="81.25" y2="127.06" stroke="#6b7280" stroke-opacity="0.35" stroke-width="1" /><line x1="497.42" y1="112.41" x2="544.79" y2="95.01" stroke="#6b7280" stroke-opacity="0.35" stroke-width="1" /><line x1="497.42" y1="112.41" x2="340.02" y2="76.90" stroke="#6b7280" stroke-opacity="0.35" stroke-width="1" /></g>
<g id="rects"><rect x="128.73" y="126.75" width="28.71" height="20.01" fill="#1e90ff" fill-opacity="0.07" stroke="#0b3d91" stroke-opacity="0.35" stroke-width="1" /><rect x="657.77" y="70.82" width="28.71" height="20.01" fill="#1e90ff" fill-opacity="0.07" stroke="#0b3d91" stroke-opacity="0.35" stroke-width="1" /><rect x="896.12" y="67.34" width="28.71" height="20.01" fill="#1e90ff" fill-opacity="0.07" stroke="#0b3d91" stroke-opacity="0.35" stroke-width="1" /><rect x="216.90" y="120.32" width="28.71" height="20.01" fill="#1e90ff" fill-opacity="0.07" stroke="#0b3d91" stroke-opacity="0.35" stroke-width="1" /><rect x="294.54" y="80.29" width="28.71" height="20.01" fill="#1e90ff" fill-opacity="0.07" stroke="#0b3d91" stroke-opacity="0.35" stroke-width="1" /><rect x="162.04" y="98.19" width="28.71" height="20.01" fill="#1e90ff" fill-opacity="0.07" stroke="#0b3d91" stroke-opacity="0.35" stroke-width="1" /><rect x="780.14" y="136.10" width="28.71" height="20.01" fill="#1e90ff" fill-opacity="0.07" stroke="#0b3d91" stroke-opacity="0.35" stroke-width="1" /><rect x="66.90" y="117.06" width="28.71" height="20.01" fill="#1e90ff" fill-opacity="0.07" stroke="#0b3d91" stroke-opacity="0.35" stroke-width="1" /><rect x="530.43" y="85.01" width="28.71" height="20.01" fill="#1e90ff" fill-opacity="0.07" stroke="#0b3d91" stroke-opacity="0.35" stroke-width="1" /><rect x="325.67" y="66.90" width="28.71" height="20.01" fill="#1e90ff" fill-opacity="0.07" stroke="#0b3d91" stroke-opacity="0.35" stroke-width="1" /></g>
<g id="anchors"><circle cx="497.42" cy="112.41" r="2.0" fill="#111827" fill-opacity="0.85" /><circle cx="497.42" cy="112.41" r="2.0" fill="#111827" fill-opacity="0.85" /><circle cx="497.42" cy="112.41" r="2.0" fill="#111827" fill-opacity="0.85" /><circle cx="497.42" cy="112.41" r="2.0" fill="#111827" fill-opacity="0.85" /><circle cx="497.42" cy="112.41" r="2.0" fill="#111827" fill-opacity="0.85" /><circle cx="497.42" cy="112.41" r="2.0" fill="#111827" fill-opacity="0.85" /><circle cx="497.42" cy="112.41" r="2.0" fill="#111827" fill-opacity="0.85" /><circle cx="497.42" cy="112.41" r="2.0" fill="#111827" fill-opacity="0.85" /><circle cx="497.42" cy="112.41" r="2.0" fill="#111827" fill-opacity="0.85" /><circle cx="497.42" cy="112.41" r="2.0" fill="#111827" fill-opacity="0.85" /></g>
<g id="labels"><text x="145.09" y="134.75" font-size="10" font-family="ui-monospace, SFMono-Regular, Menlo, Consolas, monospace" fill="#111827" fill-opacity="0.75">0</text><text x="674.12" y="78.82" font-size="10" font-family="ui-monospace, SFMono-Regular, Menlo, Consolas, monospace" fill="#111827" fill-opacity="0.75">1</text><text x="912.47" y="75.34" font-size="10" font-family="ui-monospace, SFMono-Regular, Menlo, Consolas, monospace" fill="#111827" fill-opacity="0.75">2</text><text x="233.25" y="128.33" font-size="10" font-family="ui-monospace, SFMono-Regular, Menlo, Consolas, monospace" fill="#111827" fill-opacity="0.75">3</text><text x="310.90" y="88.30" font-size="10" font-family="ui-monospace, SFMono-Regular, Menlo, Consolas, monospace" fill="#111827" fill-opacity="0.75">4</text><text x="178.39" y="106.20" font-size="10" font-family="ui-monospace, SFMono-Regular, Menlo, Consolas, monospace" fill="#111827" fill-opacity="0.75">5</text><text x="796.49" y="144.10" font-size="10" font-family="ui-monospace, SFMono-Regular, Menlo, Consolas, monospace" fill="#111827" fill-opacity="0.75">6</text><text x="83.25" y="125.06" font-size="10" font-family="ui-monospace, SFMono-Regular, Menlo, Consolas, monospace" fill="#111827" fill-opacity="0.75">7</text><text x="546.79" y="93.01" font-size="10" font-family="ui-monospace, SFMono-Regular, Menlo, Consolas, monospace" fill="#111827" fill-opacity="0.75">8</text><text x="342.02" y="74.90" font-size="10" font-family="ui-monospace, SFMono-Regular, Menlo, Consolas, monospace" fill="#111827" fill-opacity="0.75">9</text></g>
</svg>