<svg xmlns="http://www.w3.org/2000/svg" width="1200" height="223" viewBox="0 0 1200 223">
<rect x="0" y="0" width="100%" height="100%" fill="#fbfbfd" />
<text x="16" y="22" font-size="14" font-family="ui-monospace, SFMono-Regular, Menlo, Consolas, monospace" fill="#111827" fill-opacity="0.9">cluster  iter  iter=18000  n=10</text>
<g id="leaders"><line x1="497.43" y1="112.45" x2="910.53" y2="77.35" stroke="#6b7280" stroke-opacity="0.35" stroke-width="1" /><line x1="497.43" y1="112.45" x2="143.20" y2="136.74" stroke="#6b7280" stroke-opacity="0.35" stroke-width="1" /><line x1="497.43" y1="112.45" x2="794.25" y2="146.09" stroke="#6b7280" stroke-opacity="0.35" stroke-width="1" /><line x1="497.43" y1="112.45" x2="81.26" y2="126.88" stroke="#6b7280" stroke-opacity="0.35" stroke-width="1" /><line x1="497.43" y1="112.45" x2="308.52" y2="90.46" stroke="#6b7280" stroke-opacity="0.35" stroke-width="1" /><line x1="497.43" y1="112.45" x2="339.50" y2="76.91" stroke="#6b7280" stroke-opacity="0.35" stroke-width="1" /><line x1="497.43" y1="112.45" x2="544.91" y2="94.95" stroke="#6b7280" stroke-opacity="0.35" stroke-width="1" /><line x1="497.43" y1="112.45" x2="176.36" y2="108.44" stroke="#6b7280" stroke-opacity="0.35" stroke-width="1" /><line x1="497.43" y1="112.45" x2="672.17" y2="80.91" stroke="#6b7280" stroke-opacity="0.35" stroke-width="1" /><line x1="497.43" y1="112.45" x2="231.31" y2="130.08" stroke="#6b7280" stroke-opacity="0.35" stroke-width="1" /></g>
<g id="rects"><rect x="896.17" y="67.35" width="28.71" height="20.01" fill="#1e90ff" fill-opacity="0.07" stroke="#0b3d91" stroke-opacity="0.35" stroke-width="1" /><rect x="128.84" y="126.73" width="28.71" height="20.01" fill="#1e90ff" fill-opacity="0.07" stroke="#0b3d91" stroke-opacity="0.35" stroke-width="1" /><rect x="779.89" y="136.09" width="28.71" height="20.01" fill="#1e90ff" fill-opacity="0.07" stroke="#0b3d91" stroke-opacity="0.35" stroke-width="1" /><rect x="66.90" y="116.87" width="28.71" height="20.01" fill="#1e90ff" fill-opacity="0.07" stroke="#0b3d91" stroke-opacity="0.35" stroke-width="1" /><rect x="294.16" y="80.45" width="28.71" height="20.01" fill="#1e90ff" fill-opacity="0.07" stroke="#0b3d91" stroke-opacity="0.35" stroke-width="1" /><rect x="325.14" y="66.90" width="28.71" height="20.01" fill="#1e90ff" fill-opacity="0.07" stroke="#0b3d91" stroke-opacity="0.35" stroke-width="1" /><rect x="530.55" y="84.94" width="28.71" height="20.01" fill="#1e90ff" fill-opacity="0.07" stroke="#0b3d91" stroke-opacity="0.35" stroke-width="1" /><rect x="162.00" y="98.43" width="28.71" height="20.01" fill="#1e90ff" fill-opacity="0.07" stroke="#0b3d91" stroke-opacity="0.35" stroke-width="1" /><rect x="657.82" y="70.91" width="28.71" height="20.01" fill="#1e90ff" fill-opacity="0.07" stroke="#0b3d91" stroke-opacity="0.35" stroke-width="1" /><rect x="216.96" y="120.07" width="28.71" height="20.01" fill="#1e90ff" fill-opacity="0.07" stroke="#0b3d91" stroke-opacity="0.35" stroke-width="1" /></g>
<g id="anchors"><circle cx="497.43" cy="112.45" r="2.0" fill="#111827" fill-opacity="0.85" /><circle cx="497.43" cy="112.45" r="2.0" fill="#111827" fill-opacity="0.85" /><circle cx="497.43" cy="112.45" r="2.0" fill="#111827" fill-opacity="0.85" /><circle cx="497.43" cy="112.45" r="2.0" fill="#111827" fill-opacity="0.85" /><circle cx="497.43" cy="112.45" r="2.0" fill="#111827" fill-opacity="0.85" /><circle cx="497.43" cy="112.45" r="2.0" fill="#111827" fill-opacity="0.85" /><circle cx="497.43" cy="112.45" r="2.0" fill="#111827" fill-opacity="0.85" /><circle cx="497.43" cy="112.45" r="2.0" fill="#111827" fill-opacity="0.85" /><circle cx="497.43" cy="112.45" r="2.0" fill="#111827" fill-opacity="0.85" /><circle cx="497.43" cy="112.45" r="2.0" fill="#111827" fill-opacity="0.85" /></g>
<g id="labels"><text x="912.53" y="75.35" font-size="10" font-family="ui-monospace, SFMono-Regular, Menlo, Consolas, monospace" fill="#111827" fill-opacity="0.75">0</text><text x="145.20" y="134.74" font-size="10" font-family="ui-monospace, SFMono-Regular, Menlo, Consolas, monospace" fill="#111827" fill-opacity="0.75">1</text><text x="796.25" y="144.09" font-size="10" font-family="ui-monospace, SFMono-Regular, Menlo, Consolas, monospace" fill="#111827" fill-opacity="0.75">2</text><text x="83.26" y="124.88" font-size="10" font-family="ui-monospace, SFMono-Regular, Menlo, Consolas, monospace" fill="#111827" fill-opacity="0.75">3</text><text x="310.52" y="88.46" font-size="10" font-family="ui-monospace, SFMono-Regular, Menlo, Consolas, monospace" fill="#111827" fill-opacity="0.75">4</text><text x="341.50" y="74.91" font-size="10" font-family="ui-monospace, SFMono-Regular, Menlo, Consolas, monospace" fill="#111827" fill-opacity="0.75">5</text><text x="546.91" y="92.95" font-size="10" font-family="ui-monospace, SFMono-Regular, Menlo, Consolas, monospace" fill="#111827" fill-opacity="0.75">6</text><text x="178.36" y="106.44" font-size="10" font-family="ui-monospace, SFMono-Regular, Menlo, Consolas, monospace" fill="#111827" fill-opacity="0.75">7</text><text x="674.17" y="78.91" font-size="10" font-family="ui-monospace, SFMono-Regular, Menlo, Consolas, monospace" fill="#111827" fill-opacity="0.75">8</text><text x="233.31" y="128.08" font-size="10" font-family="ui-monospace, SFMono-Regular, Menlo, Consolas, monospace" fill="#111827" fill-opacity="0.75">9</text></g>
</svg>