<svg xmlns="http://www.w3.org/2000/svg" width="1200" height="243" viewBox="0 0 1200 243">
<rect x="0" y="0" width="100%" height="100%" fill="#fbfbfd" />
<text x="16" y="22" font-size="14" font-family="ui-monospace, SFMono-Regular, Menlo, Consolas, monospace" fill="#111827" fill-opacity="0.9">cluster  iter  iter=2000  n=10</text>
<g id="leaders"><line x1="553.62" y1="119.69" x2="794.22" y2="145.42" stroke="#6b7280" stroke-opacity="0.35" stroke-width="1" /><line x1="553.62" y1="119.69" x2="202.01" y2="164.13" stroke="#6b7280" stroke-opacity="0.35" stroke-width="1" /><line x1="553.62" y1="119.69" x2="457.13" y2="117.74" stroke="#6b7280" stroke-opacity="0.35" stroke-width="1" /><line x1="553.62" y1="119.69" x2="304.85" y2="127.09" stroke="#6b7280" stroke-opacity="0.35" stroke-width="1" /><line x1="553.62" y1="119.69" x2="83.70" y2="126.32" stroke="#6b7280" stroke-opacity="0.35" stroke-width="1" /><line x1="553.62" y1="119.69" x2="597.48" y2="101.47" stroke="#6b7280" stroke-opacity="0.35" stroke-width="1" /><line x1="553.62" y1="119.69" x2="342.10" y2="154.75" stroke="#6b7280" stroke-opacity="0.35" stroke-width="1" /><line x1="553.62" y1="119.69" x2="926.93" y2="164.13" stroke="#6b7280" stroke-opacity="0.35" stroke-width="1" /><line x1="553.62" y1="119.69" x2="637.33" y2="78.87" stroke="#6b7280" stroke-opacity="0.35" stroke-width="1" /><line x1="553.62" y1="119.69" x2="342.49" y2="145.28" stroke="#6b7280" stroke-opacity="0.35" stroke-width="1" /></g>
<g id="rects"><rect x="778.28" y="134.31" width="31.88" height="22.22" fill="#1e90ff" fill-opacity="0.07" stroke="#0b3d91" stroke-opacity="0.35" stroke-width="1" /><rect x="186.07" y="153.02" width="31.88" height="22.22" fill="#1e90ff" fill-opacity="0.07" stroke="#0b3d91" stroke-opacity="0.35" stroke-width="1" /><rect x="441.19" y="106.63" width="31.88" height="22.22" fill="#1e90ff" fill-opacity="0.07" stroke="#0b3d91" stroke-opacity="0.35" stroke-width="1" /><rect x="288.91" y="115.98" width="31.88" height="22.22" fill="#1e90ff" fill-opacity="0.07" stroke="#0b3d91" stroke-opacity="0.35" stroke-width="1" /><rect x="67.76" y="115.21" width="31.88" height="22.22" fill="#1e90ff" fill-opacity="0.07" stroke="#0b3d91" stroke-opacity="0.35" stroke-width="1" /><rect x="581.54" y="90.36" width="31.88" height="22.22" fill="#1e90ff" fill-opacity="0.07" stroke="#0b3d91" stroke-opacity="0.35" stroke-width="1" /><rect x="326.16" y="143.64" width="31.88" height="22.22" fill="#1e90ff" fill-opacity="0.07" stroke="#0b3d91" stroke-opacity="0.35" stroke-width="1" /><rect x="910.98" y="153.02" width="31.88" height="22.22" fill="#1e90ff" fill-opacity="0.07" stroke="#0b3d91" stroke-opacity="0.35" stroke-width="1" /><rect x="621.39" y="67.76" width="31.88" height="22.22" fill="#1e90ff" fill-opacity="0.07" stroke="#0b3d91" stroke-opacity="0.35" stroke-width="1" /><rect x="326.54" y="134.16" width="31.88" height="22.22" fill="#1e90ff" fill-opacity="0.07" stroke="#0b3d91" stroke-opacity="0.35" stroke-width="1" /></g>
<g id="anchors"><circle cx="553.62" cy="119.69" r="2.0" fill="#111827" fill-opacity="0.85" /><circle cx="553.62" cy="119.69" r="2.0" fill="#111827" fill-opacity="0.85" /><circle cx="553.62" cy="119.69" r="2.0" fill="#111827" fill-opacity="0.85" /><circle cx="553.62" cy="119.69" r="2.0" fill="#111827" fill-opacity="0.85" /><circle cx="553.62" cy="119.69" r="2.0" fill="#111827" fill-opacity="0.85" /><circle cx="553.62" cy="119.69" r="2.0" fill="#111827" fill-opacity="0.85" /><circle cx="553.62" cy="119.69" r="2.0" fill="#111827" fill-opacity="0.85" /><circle cx="553.62" cy="119.69" r="2.0" fill="#111827" fill-opacity="0.85" /><circle cx="553.62" cy="119.69" r="2.0" fill="#111827" fill-opacity="0.85" /><circle cx="553.62" cy="119.69" r="2.0" fill="#111827" fill-opacity="0.85" /></g>
<g id="labels"><text x="796.22" y="143.42" font-size="10" font-family="ui-monospace, SFMono-Regular, Menlo, Consolas, monospace" fill="#111827" fill-opacity="0.75">0</text><text x="204.01" y="162.13" font-size="10" font-family="ui-monospace, SFMono-Regular, Menlo, Consolas, monospace" fill="#111827" fill-opacity="0.75">1</text><text x="459.13" y="115.74" font-size="10" font-family="ui-monospace, SFMono-Regular, Menlo, Consolas, monospace" fill="#111827" fill-opacity="0.75">2</text><text x="306.85" y="125.09" font-size="10" font-family="ui-monospace, SFMono-Regular, Menlo, Consolas, monospace" fill="#111827" fill-opacity="0.75">3</text><text x="85.70" y="124.32" font-size="10" font-family="ui-monospace, SFMono-Regular, Menlo, Consolas, monospace" fill="#111827" fill-opacity="0.75">4</text><text x="599.48" y="99.47" font-size="10" font-family="ui-monospace, SFMono-Regular, Menlo, Consolas, monospace" fill="#111827" fill-opacity="0.75">5</text><text x="344.10" y="152.75" font-size="10" font-family="ui-monospace, SFMono-Regular, Menlo, Consolas, monospace" fill="#111827" fill-opacity="0.75">6</text><text x="928.93" y="162.13" font-size="10" font-family="ui-monospace, SFMono-Regular, Menlo, Consolas, monospace" fill="#111827" fill-opacity="0.75">7</text><text x="639.33" y="76.87" font-size="10" font-family="ui-monospace, SFMono-Regular, Menlo, Consolas, monospace" fill="#111827" fill-opacity="0.75">8</text><text x="344.49" y="143.28" font-size="10" font-family="ui-monospace, SFMono-Regular, Menlo, Consolas, monospace" fill="#111827" fill-opacity="0.75">9</text></g>
</svg>