<svg xmlns="http://www.w3.org/2000/svg" width="1200" height="210" viewBox="0 0 1200 210">
<rect x="0" y="0" width="100%" height="100%" fill="#fbfbfd" />
<text x="16" y="22" font-size="14" font-family="ui-monospace, SFMono-Regular, Menlo, Consolas, monospace" fill="#111827" fill-opacity="0.9">cluster  iter  iter=3000  n=10</text>
<g id="leaders"><line x1="499.08" y1="98.91" x2="176.51" y2="79.84" stroke="#6b7280" stroke-opacity="0.35" stroke-width="1" /><line x1="499.08" y1="98.91" x2="687.36" y2="75.05" stroke="#6b7280" stroke-opacity="0.35" stroke-width="1" /><line x1="499.08" y1="98.91" x2="893.94" y2="134.95" stroke="#6b7280" stroke-opacity="0.35" stroke-width="1" /><line x1="499.08" y1="98.91" x2="608.51" y2="131.85" stroke="#6b7280" stroke-opacity="0.35" stroke-width="1" /><line x1="499.08" y1="98.91" x2="307.34" y2="115.71" stroke="#6b7280" stroke-opacity="0.35" stroke-width="1" /><line x1="499.08" y1="98.91" x2="767.78" y2="109.36" stroke="#6b7280" stroke-opacity="0.35" stroke-width="1" /><line x1="499.08" y1="98.91" x2="375.94" y2="134.11" stroke="#6b7280" stroke-opacity="0.35" stroke-width="1" /><line x1="499.08" y1="98.91" x2="251.12" y2="83.18" stroke="#6b7280" stroke-opacity="0.35" stroke-width="1" /><line x1="499.08" y1="98.91" x2="78.97" y2="86.97" stroke="#6b7280" stroke-opacity="0.35" stroke-width="1" /><line x1="499.08" y1="98.91" x2="207.91" y2="119.67" stroke="#6b7280" stroke-opacity="0.35" stroke-width="1" /></g>
<g id="rects"><rect x="163.58" y="70.83" width="25.85" height="18.02" fill="#1e90ff" fill-opacity="0.07" stroke="#0b3d91" stroke-opacity="0.35" stroke-width="1" /><rect x="674.43" y="66.04" width="25.85" height="18.02" fill="#1e90ff" fill-opacity="0.07" stroke="#0b3d91" stroke-opacity="0.35" stroke-width="1" /><rect x="881.01" y="125.94" width="25.85" height="18.02" fill="#1e90ff" fill-opacity="0.07" stroke="#0b3d91" stroke-opacity="0.35" stroke-width="1" /><rect x="595.58" y="122.84" width="25.85" height="18.02" fill="#1e90ff" fill-opacity="0.07" stroke="#0b3d91" stroke-opacity="0.35" stroke-width="1" /><rect x="294.41" y="106.70" width="25.85" height="18.02" fill="#1e90ff" fill-opacity="0.07" stroke="#0b3d91" stroke-opacity="0.35" stroke-width="1" /><rect x="754.85" y="100.35" width="25.85" height="18.02" fill="#1e90ff" fill-opacity="0.07" stroke="#0b3d91" stroke-opacity="0.35" stroke-width="1" /><rect x="363.02" y="125.10" width="25.85" height="18.02" fill="#1e90ff" fill-opacity="0.07" stroke="#0b3d91" stroke-opacity="0.35" stroke-width="1" /><rect x="238.19" y="74.17" width="25.85" height="18.02" fill="#1e90ff" fill-opacity="0.07" stroke="#0b3d91" stroke-opacity="0.35" stroke-width="1" /><rect x="66.04" y="77.96" width="25.85" height="18.02" fill="#1e90ff" fill-opacity="0.07" stroke="#0b3d91" stroke-opacity="0.35" stroke-width="1" /><rect x="194.98" y="110.66" width="25.85" height="18.02" fill="#1e90ff" fill-opacity="0.07" stroke="#0b3d91" stroke-opacity="0.35" stroke-width="1" /></g>
<g id="anchors"><circle cx="499.08" cy="98.91" r="2.0" fill="#111827" fill-opacity="0.85" /><circle cx="499.08" cy="98.91" r="2.0" fill="#111827" fill-opacity="0.85" /><circle cx="499.08" cy="98.91" r="2.0" fill="#111827" fill-opacity="0.85" /><circle cx="499.08" cy="98.91" r="2.0" fill="#111827" fill-opacity="0.85" /><circle cx="499.08" cy="98.91" r="2.0" fill="#111827" fill-opacity="0.85" /><circle cx="499.08" cy="98.91" r="2.0" fill="#111827" fill-opacity="0.85" /><circle cx="499.08" cy="98.91" r="2.0" fill="#111827" fill-opacity="0.85" /><circle cx="499.08" cy="98.91" r="2.0" fill="#111827" fill-opacity="0.85" /><circle cx="499.08" cy="98.91" r="2.0" fill="#111827" fill-opacity="0.85" /><circle cx="499.08" cy="98.91" r="2.0" fill="#111827" fill-opacity="0.85" /></g>
<g id="labels"><text x="178.51" y="77.84" font-size="10" font-family="ui-monospace, SFMono-Regular, Menlo, Consolas, monospace" fill="#111827" fill-opacity="0.75">0</text><text x="689.36" y="73.05" font-size="10" font-family="ui-monospace, SFMono-Regular, Menlo, Consolas, monospace" fill="#111827" fill-opacity="0.75">1</text><text x="895.94" y="132.95" font-size="10" font-family="ui-monospace, SFMono-Regular, Menlo, Consolas, monospace" fill="#111827" fill-opacity="0.75">2</text><text x="610.51" y="129.85" font-size="10" font-family="ui-monospace, SFMono-Regular, Menlo, Consolas, monospace" fill="#111827" fill-opacity="0.75">3</text><text x="309.34" y="113.71" font-size="10" font-family="ui-monospace, SFMono-Regular, Menlo, Consolas, monospace" fill="#111827" fill-opacity="0.75">4</text><text x="769.78" y="107.36" font-size="10" font-family="ui-monospace, SFMono-Regular, Menlo, Consolas, monospace" fill="#111827" fill-opacity="0.75">5</text><text x="377.94" y="132.11" font-size="10" font-family="ui-monospace, SFMono-Regular, Menlo, Consolas, monospace" fill="#111827" fill-opacity="0.75">6</text><text x="253.12" y="81.18" font-size="10" font-family="ui-monospace, SFMono-Regular, Menlo, Consolas, monospace" fill="#111827" fill-opacity="0.75">7</text><text x="80.97" y="84.97" font-size="10" font-family="ui-monospace, SFMono-Regular, Menlo, Consolas, monospace" fill="#111827" fill-opacity="0.75">8</text><text x="209.91" y="117.67" font-size="10" font-family="ui-monospace, SFMono-Regular, Menlo, Consolas, monospace" fill="#111827" fill-opacity="0.75">9</text></g>
</svg>