<svg xmlns="http://www.w3.org/2000/svg" width="1200" height="869" viewBox="0 0 1200 869">
<rect x="0" y="0" width="100%" height="100%" fill="#fbfbfd" />
<text x="16" y="22" font-size="14" font-family="ui-monospace, SFMono-Regular, Menlo, Consolas, monospace" fill="#111827" fill-opacity="0.9">cluster  start  iter=0  n=10</text>
<g id="leaders"><line x1="590.58" y1="434.50" x2="590.58" y2="434.50" stroke="#6b7280" stroke-opacity="0.35" stroke-width="1" /><line x1="590.58" y1="434.50" x2="590.58" y2="434.50" stroke="#6b7280" stroke-opacity="0.35" stroke-width="1" /><line x1="590.58" y1="434.50" x2="590.58" y2="434.50" stroke="#6b7280" stroke-opacity="0.35" stroke-width="1" /><line x1="590.58" y1="434.50" x2="590.58" y2="434.50" stroke="#6b7280" stroke-opacity="0.35" stroke-width="1" /><line x1="590.58" y1="434.50" x2="590.58" y2="434.50" stroke="#6b7280" stroke-opacity="0.35" stroke-width="1" /><line x1="590.58" y1="434.50" x2="590.58" y2="434.50" stroke="#6b7280" stroke-opacity="0.35" stroke-width="1" /><line x1="590.58" y1="434.50" x2="590.58" y2="434.50" stroke="#6b7280" stroke-opacity="0.35" stroke-width="1" /><line x1="590.58" y1="434.50" x2="590.58" y2="434.50" stroke="#6b7280" stroke-opacity="0.35" stroke-width="1" /><line x1="590.58" y1="434.50" x2="590.58" y2="434.50" stroke="#6b7280" stroke-opacity="0.35" stroke-width="1" /><line x1="590.58" y1="434.50" x2="590.58" y2="434.50" stroke="#6b7280" stroke-opacity="0.35" stroke-width="1" /></g>
<g id="rects"><rect x="75.51" y="75.51" width="1030.15" height="717.98" fill="#1e90ff" fill-opacity="0.07" stroke="#0b3d91" stroke-opacity="0.35" stroke-width="1" /><rect x="75.51" y="75.51" width="1030.15" height="717.98" fill="#1e90ff" fill-opacity="0.07" stroke="#0b3d91" stroke-opacity="0.35" stroke-width="1" /><rect x="75.51" y="75.51" width="1030.15" height="717.98" fill="#1e90ff" fill-opacity="0.07" stroke="#0b3d91" stroke-opacity="0.35" stroke-width="1" /><rect x="75.51" y="75.51" width="1030.15" height="717.98" fill="#1e90ff" fill-opacity="0.07" stroke="#0b3d91" stroke-opacity="0.35" stroke-width="1" /><rect x="75.51" y="75.51" width="1030.15" height="717.98" fill="#1e90ff" fill-opacity="0.07" stroke="#0b3d91" stroke-opacity="0.35" stroke-width="1" /><rect x="75.51" y="75.51" width="1030.15" height="717.98" fill="#1e90ff" fill-opacity="0.07" stroke="#0b3d91" stroke-opacity="0.35" stroke-width="1" /><rect x="75.51" y="75.51" width="1030.15" height="717.98" fill="#1e90ff" fill-opacity="0.07" stroke="#0b3d91" stroke-opacity="0.35" stroke-width="1" /><rect x="75.51" y="75.51" width="1030.15" height="717.98" fill="#1e90ff" fill-opacity="0.07" stroke="#0b3d91" stroke-opacity="0.35" stroke-width="1" /><rect x="75.51" y="75.51" width="1030.15" height="717.98" fill="#1e90ff" fill-opacity="0.07" stroke="#0b3d91" stroke-opacity="0.35" stroke-width="1" /><rect x="75.51" y="75.51" width="1030.15" height="717.98" fill="#1e90ff" fill-opacity="0.07" stroke="#0b3d91" stroke-opacity="0.35" stroke-width="1" /></g>
<g id="anchors"><circle cx="590.58" cy="434.50" r="2.0" fill="#111827" fill-opacity="0.85" /><circle cx="590.58" cy="434.50" r="2.0" fill="#111827" fill-opacity="0.85" /><circle cx="590.58" cy="434.50" r="2.0" fill="#111827" fill-opacity="0.85" /><circle cx="590.58" cy="434.50" r="2.0" fill="#111827" fill-opacity="0.85" /><circle cx="590.58" cy="434.50" r="2.0" fill="#111827" fill-opacity="0.85" /><circle cx="590.58" cy="434.50" r="2.0" fill="#111827" fill-opacity="0.85" /><circle cx="590.58" cy="434.50" r="2.0" fill="#111827" fill-opacity="0.85" /><circle cx="590.58" cy="434.50" r="2.0" fill="#111827" fill-opacity="0.85" /><circle cx="590.58" cy="434.50" r="2.0" fill="#111827" fill-opacity="0.85" /><circle cx="590.58" cy="434.50" r="2.0" fill="#111827" fill-opacity="0.85" /></g>
<g id="labels"><text x="592.58" y="432.50" font-size="10" font-family="ui-monospace, SFMono-Regular, Menlo, Consolas, monospace" fill="#111827" fill-opacity="0.75">0</text><text x="592.58" y="432.50" font-size="10" font-family="ui-monospace, SFMono-Regular, Menlo, Consolas, monospace" fill="#111827" fill-opacity="0.75">1</text><text x="592.58" y="432.50" font-size="10" font-family="ui-monospace, SFMono-Regular, Menlo, Consolas, monospace" fill="#111827" fill-opacity="0.75">2</text><text x="592.58" y="432.50" font-size="10" font-family="ui-monospace, SFMono-Regular, Menlo, Consolas, monospace" fill="#111827" fill-opacity="0.75">3</text><text x="592.58" y="432.50" font-size="10" font-family="ui-monospace, SFMono-Regular, Menlo, Consolas, monospace" fill="#111827" fill-opacity="0.75">4</text><text x="592.58" y="432.50" font-size="10" font-family="ui-monospace, SFMono-Regular, Menlo, Consolas, monospace" fill="#111827" fill-opacity="0.75">5</text><text x="592.58" y="432.50" font-size="10" font-family="ui-monospace, SFMono-Regular, Menlo, Consolas, monospace" fill="#111827" fill-opacity="0.75">6</text><text x="592.58" y="432.50" font-size="10" font-family="ui-monospace, SFMono-Regular, Menlo, Consolas, monospace" fill="#111827" fill-opacity="0.75">7</text><text x="592.58" y="432.50" font-size="10" font-family="ui-monospace, SFMono-Regular, Menlo, Consolas, monospace" fill="#111827" fill-opacity="0.75">8</text><text x="592.58" y="432.50" font-size="10" font-family="ui-monospace, SFMono-Regular, Menlo, Consolas, monospace" fill="#111827" fill-opacity="0.75">9</text></g>
</svg>