<svg xmlns="http://www.w3.org/2000/svg" width="1200" height="225" viewBox="0 0 1200 225">
<rect x="0" y="0" width="100%" height="100%" fill="#fbfbfd" />
<text x="16" y="22" font-size="14" font-family="ui-monospace, SFMono-Regular, Menlo, Consolas, monospace" fill="#111827" fill-opacity="0.9">cluster  iter  iter=11000  n=10</text>
<g id="leaders"><line x1="496.81" y1="113.42" x2="796.49" y2="148.07" stroke="#6b7280" stroke-opacity="0.35" stroke-width="1" /><line x1="496.81" y1="113.42" x2="674.05" y2="81.48" stroke="#6b7280" stroke-opacity="0.35" stroke-width="1" /><line x1="496.81" y1="113.42" x2="910.89" y2="77.73" stroke="#6b7280" stroke-opacity="0.35" stroke-width="1" /><line x1="496.81" y1="113.42" x2="542.76" y2="95.35" stroke="#6b7280" stroke-opacity="0.35" stroke-width="1" /><line x1="496.81" y1="113.42" x2="141.53" y2="134.36" stroke="#6b7280" stroke-opacity="0.35" stroke-width="1" /><line x1="496.81" y1="113.42" x2="81.28" y2="125.39" stroke="#6b7280" stroke-opacity="0.35" stroke-width="1" /><line x1="496.81" y1="113.42" x2="176.43" y2="110.02" stroke="#6b7280" stroke-opacity="0.35" stroke-width="1" /><line x1="496.81" y1="113.42" x2="338.18" y2="76.93" stroke="#6b7280" stroke-opacity="0.35" stroke-width="1" /><line x1="496.81" y1="113.42" x2="230.32" y2="130.63" stroke="#6b7280" stroke-opacity="0.35" stroke-width="1" /><line x1="496.81" y1="113.42" x2="307.48" y2="92.69" stroke="#6b7280" stroke-opacity="0.35" stroke-width="1" /></g>
<g id="rects"><rect x="782.13" y="138.06" width="28.73" height="20.02" fill="#1e90ff" fill-opacity="0.07" stroke="#0b3d91" stroke-opacity="0.35" stroke-width="1" /><rect x="659.68" y="71.47" width="28.73" height="20.02" fill="#1e90ff" fill-opacity="0.07" stroke="#0b3d91" stroke-opacity="0.35" stroke-width="1" /><rect x="896.52" y="67.72" width="28.73" height="20.02" fill="#1e90ff" fill-opacity="0.07" stroke="#0b3d91" stroke-opacity="0.35" stroke-width="1" /><rect x="528.39" y="85.34" width="28.73" height="20.02" fill="#1e90ff" fill-opacity="0.07" stroke="#0b3d91" stroke-opacity="0.35" stroke-width="1" /><rect x="127.16" y="124.35" width="28.73" height="20.02" fill="#1e90ff" fill-opacity="0.07" stroke="#0b3d91" stroke-opacity="0.35" stroke-width="1" /><rect x="66.92" y="115.38" width="28.73" height="20.02" fill="#1e90ff" fill-opacity="0.07" stroke="#0b3d91" stroke-opacity="0.35" stroke-width="1" /><rect x="162.06" y="100.01" width="28.73" height="20.02" fill="#1e90ff" fill-opacity="0.07" stroke="#0b3d91" stroke-opacity="0.35" stroke-width="1" /><rect x="323.81" y="66.92" width="28.73" height="20.02" fill="#1e90ff" fill-opacity="0.07" stroke="#0b3d91" stroke-opacity="0.35" stroke-width="1" /><rect x="215.96" y="120.62" width="28.73" height="20.02" fill="#1e90ff" fill-opacity="0.07" stroke="#0b3d91" stroke-opacity="0.35" stroke-width="1" /><rect x="293.12" y="82.67" width="28.73" height="20.02" fill="#1e90ff" fill-opacity="0.07" stroke="#0b3d91" stroke-opacity="0.35" stroke-width="1" /></g>
<g id="anchors"><circle cx="496.81" cy="113.42" r="2.0" fill="#111827" fill-opacity="0.85" /><circle cx="496.81" cy="113.42" r="2.0" fill="#111827" fill-opacity="0.85" /><circle cx="496.81" cy="113.42" r="2.0" fill="#111827" fill-opacity="0.85" /><circle cx="496.81" cy="113.42" r="2.0" fill="#111827" fill-opacity="0.85" /><circle cx="496.81" cy="113.42" r="2.0" fill="#111827" fill-opacity="0.85" /><circle cx="496.81" cy="113.42" r="2.0" fill="#111827" fill-opacity="0.85" /><circle cx="496.81" cy="113.42" r="2.0" fill="#111827" fill-opacity="0.85" /><circle cx="496.81" cy="113.42" r="2.0" fill="#111827" fill-opacity="0.85" /><circle cx="496.81" cy="113.42" r="2.0" fill="#111827" fill-opacity="0.85" /><circle cx="496.81" cy="113.42" r="2.0" fill="#111827" fill-opacity="0.85" /></g>
<g id="labels"><text x="798.49" y="146.07" font-size="10" font-family="ui-monospace, SFMono-Regular, Menlo, Consolas, monospace" fill="#111827" fill-opacity="0.75">0</text><text x="676.05" y="79.48" font-size="10" font-family="ui-monospace, SFMono-Regular, Menlo, Consolas, monospace" fill="#111827" fill-opacity="0.75">1</text><text x="912.89" y="75.73" font-size="10" font-family="ui-monospace, SFMono-Regular, Menlo, Consolas, monospace" fill="#111827" fill-opacity="0.75">2</text><text x="544.76" y="93.35" font-size="10" font-family="ui-monospace, SFMono-Regular, Menlo, Consolas, monospace" fill="#111827" fill-opacity="0.75">3</text><text x="143.53" y="132.36" font-size="10" font-family="ui-monospace, SFMono-Regular, Menlo, Consolas, monospace" fill="#111827" fill-opacity="0.75">4</text><text x="83.28" y="123.39" font-size="10" font-family="ui-monospace, SFMono-Regular, Menlo, Consolas, monospace" fill="#111827" fill-opacity="0.75">5</text><text x="178.43" y="108.02" font-size="10" font-family="ui-monospace, SFMono-Regular, Menlo, Consolas, monospace" fill="#111827" fill-opacity="0.75">6</text><text x="340.18" y="74.93" font-size="10" font-family="ui-monospace, SFMono-Regular, Menlo, Consolas, monospace" fill="#111827" fill-opacity="0.75">7</text><text x="232.32" y="128.63" font-size="10" font-family="ui-monospace, SFMono-Regular, Menlo, Consolas, monospace" fill="#111827" fill-opacity="0.75">8</text><text x="309.48" y="90.69" font-size="10" font-family="ui-monospace, SFMono-Regular, Menlo, Consolas, monospace" fill="#111827" fill-opacity="0.75">9</text></g>
</svg>