<svg xmlns="http://www.w3.org/2000/svg" width="1200" height="224" viewBox="0 0 1200 224">
<rect x="0" y="0" width="100%" height="100%" fill="#fbfbfd" />
<text x="16" y="22" font-size="14" font-family="ui-monospace, SFMono-Regular, Menlo, Consolas, monospace" fill="#111827" fill-opacity="0.9">cluster  iter  iter=13000  n=10</text>
<g id="leaders"><line x1="496.23" y1="112.51" x2="142.34" y2="135.87" stroke="#6b7280" stroke-opacity="0.35" stroke-width="1" /><line x1="496.23" y1="112.51" x2="308.12" y2="90.80" stroke="#6b7280" stroke-opacity="0.35" stroke-width="1" /><line x1="496.23" y1="112.51" x2="338.57" y2="76.75" stroke="#6b7280" stroke-opacity="0.35" stroke-width="1" /><line x1="496.23" y1="112.51" x2="230.59" y2="129.76" stroke="#6b7280" stroke-opacity="0.35" stroke-width="1" /><line x1="496.23" y1="112.51" x2="81.08" y2="126.75" stroke="#6b7280" stroke-opacity="0.35" stroke-width="1" /><line x1="496.23" y1="112.51" x2="176.59" y2="108.11" stroke="#6b7280" stroke-opacity="0.35" stroke-width="1" /><line x1="496.23" y1="112.51" x2="792.36" y2="147.25" stroke="#6b7280" stroke-opacity="0.35" stroke-width="1" /><line x1="496.23" y1="112.51" x2="907.89" y2="77.89" stroke="#6b7280" stroke-opacity="0.35" stroke-width="1" /><line x1="496.23" y1="112.51" x2="543.70" y2="95.23" stroke="#6b7280" stroke-opacity="0.35" stroke-width="1" /><line x1="496.23" y1="112.51" x2="671.07" y2="81.22" stroke="#6b7280" stroke-opacity="0.35" stroke-width="1" /></g>
<g id="rects"><rect x="128.03" y="125.89" width="28.62" height="19.95" fill="#1e90ff" fill-opacity="0.07" stroke="#0b3d91" stroke-opacity="0.35" stroke-width="1" /><rect x="293.81" y="80.82" width="28.62" height="19.95" fill="#1e90ff" fill-opacity="0.07" stroke="#0b3d91" stroke-opacity="0.35" stroke-width="1" /><rect x="324.26" y="66.77" width="28.62" height="19.95" fill="#1e90ff" fill-opacity="0.07" stroke="#0b3d91" stroke-opacity="0.35" stroke-width="1" /><rect x="216.28" y="119.78" width="28.62" height="19.95" fill="#1e90ff" fill-opacity="0.07" stroke="#0b3d91" stroke-opacity="0.35" stroke-width="1" /><rect x="66.77" y="116.77" width="28.62" height="19.95" fill="#1e90ff" fill-opacity="0.07" stroke="#0b3d91" stroke-opacity="0.35" stroke-width="1" /><rect x="162.28" y="98.14" width="28.62" height="19.95" fill="#1e90ff" fill-opacity="0.07" stroke="#0b3d91" stroke-opacity="0.35" stroke-width="1" /><rect x="778.05" y="137.28" width="28.62" height="19.95" fill="#1e90ff" fill-opacity="0.07" stroke="#0b3d91" stroke-opacity="0.35" stroke-width="1" /><rect x="893.58" y="67.91" width="28.62" height="19.95" fill="#1e90ff" fill-opacity="0.07" stroke="#0b3d91" stroke-opacity="0.35" stroke-width="1" /><rect x="529.39" y="85.25" width="28.62" height="19.95" fill="#1e90ff" fill-opacity="0.07" stroke="#0b3d91" stroke-opacity="0.35" stroke-width="1" /><rect x="656.76" y="71.25" width="28.62" height="19.95" fill="#1e90ff" fill-opacity="0.07" stroke="#0b3d91" stroke-opacity="0.35" stroke-width="1" /></g>
<g id="anchors"><circle cx="496.23" cy="112.51" r="2.0" fill="#111827" fill-opacity="0.85" /><circle cx="496.23" cy="112.51" r="2.0" fill="#111827" fill-opacity="0.85" /><circle cx="496.23" cy="112.51" r="2.0" fill="#111827" fill-opacity="0.85" /><circle cx="496.23" cy="112.51" r="2.0" fill="#111827" fill-opacity="0.85" /><circle cx="496.23" cy="112.51" r="2.0" fill="#111827" fill-opacity="0.85" /><circle cx="496.23" cy="112.51" r="2.0" fill="#111827" fill-opacity="0.85" /><circle cx="496.23" cy="112.51" r="2.0" fill="#111827" fill-opacity="0.85" /><circle cx="496.23" cy="112.51" r="2.0" fill="#111827" fill-opacity="0.85" /><circle cx="496.23" cy="112.51" r="2.0" fill="#111827" fill-opacity="0.85" /><circle cx="496.23" cy="112.51" r="2.0" fill="#111827" fill-opacity="0.85" /></g>
<g id="labels"><text x="144.34" y="133.87" font-size="10" font-family="ui-monospace, SFMono-Regular, Menlo, Consolas, monospace" fill="#111827" fill-opacity="0.75">0</text><text x="310.12" y="88.80" font-size="10" font-family="ui-monospace, SFMono-Regular, Menlo, Consolas, monospace" fill="#111827" fill-opacity="0.75">1</text><text x="340.57" y="74.75" font-size="10" font-family="ui-monospace, SFMono-Regular, Menlo, Consolas, monospace" fill="#111827" fill-opacity="0.75">2</text><text x="232.59" y="127.76" font-size="10" font-family="ui-monospace, SFMono-Regular, Menlo, Consolas, monospace" fill="#111827" fill-opacity="0.75">3</text><text x="83.08" y="124.75" font-size="10" font-family="ui-monospace, SFMono-Regular, Menlo, Consolas, monospace" fill="#111827" fill-opacity="0.75">4</text><text x="178.59" y="106.11" font-size="10" font-family="ui-monospace, SFMono-Regular, Menlo, Consolas, monospace" fill="#111827" fill-opacity="0.75">5</text><text x="794.36" y="145.25" font-size="10" font-family="ui-monospace, SFMono-Regular, Menlo, Consolas, monospace" fill="#111827" fill-opacity="0.75">6</text><text x="909.89" y="75.89" font-size="10" font-family="ui-monospace, SFMono-Regular, Menlo, Consolas, monospace" fill="#111827" fill-opacity="0.75">7</text><text x="545.70" y="93.23" font-size="10" font-family="ui-monospace, SFMono-Regular, Menlo, Consolas, monospace" fill="#111827" fill-opacity="0.75">8</text><text x="673.07" y="79.22" font-size="10" font-family="ui-monospace, SFMono-Regular, Menlo, Consolas, monospace" fill="#111827" fill-opacity="0.75">9</text></g>
</svg>